<svg xmlns="http://www.w3.org/2000/svg" xmlns:xlink="http://www.w3.org/1999/xlink" width="167.28" height="32" viewBox="0 0 167.28 32">
  <defs>
    <linearGradient id="linear-gradient" x1="0.5" x2="0.5" y2="1" gradientUnits="objectBoundingBox">
      <stop offset="0" stop-color="#fff" stop-opacity="0"/>
      <stop offset="1" stop-color="#02cdcd"/>
    </linearGradient>
  </defs>
  <g id="Group_56" data-name="Group 56" transform="translate(811 -497)">
    <ellipse id="Ellipse_31" data-name="Ellipse 31" cx="10" cy="11" rx="10" ry="11" transform="translate(-805 502)" fill="#858f97"/>
    <path id="Subtraction_8" data-name="Subtraction 8" d="M38.176,32H34.412V30.588h3.764a1.414,1.414,0,0,0,1.412-1.412V25.412H41v3.764A2.827,2.827,0,0,1,38.176,32ZM15.588,32H11.823A2.826,2.826,0,0,1,9,29.176V25.412h1.412v3.764a1.413,1.413,0,0,0,1.411,1.412h3.765ZM41,7.529H39.588V2.823a1.414,1.414,0,0,0-1.412-1.412H34.412V0h3.764A2.827,2.827,0,0,1,41,2.823v4.7Zm-30.588,0H9V2.823A2.826,2.826,0,0,1,11.823,0h3.765V1.411H11.823a1.413,1.413,0,0,0-1.411,1.412v4.7Z" transform="translate(-820 497)" fill="#023c89"/>
    <path id="Path_5014" data-name="Path 5014" d="M28.76-14A15.183,15.183,0,0,1,27-6.74a13.479,13.479,0,0,1-4.86,5.22A12.986,12.986,0,0,1,15.16.4,12.986,12.986,0,0,1,8.18-1.52,13.332,13.332,0,0,1,3.34-6.74,15.324,15.324,0,0,1,1.6-14a15.324,15.324,0,0,1,1.74-7.26,13.332,13.332,0,0,1,4.84-5.22,12.986,12.986,0,0,1,6.98-1.92,12.986,12.986,0,0,1,6.98,1.92A13.479,13.479,0,0,1,27-21.26,15.183,15.183,0,0,1,28.76-14Zm-5.2,0a10.8,10.8,0,0,0-1.08-4.86,8.716,8.716,0,0,0-3-3.46,7.613,7.613,0,0,0-4.32-1.28,7.673,7.673,0,0,0-4.34,1.26,8.451,8.451,0,0,0-2.96,3.46A11.1,11.1,0,0,0,6.8-14,11.1,11.1,0,0,0,7.86-9.12a8.451,8.451,0,0,0,2.96,3.46A7.673,7.673,0,0,0,15.16-4.4a7.613,7.613,0,0,0,4.32-1.28,8.717,8.717,0,0,0,3-3.46A10.8,10.8,0,0,0,23.56-14Zm29.8-12.64A2.141,2.141,0,0,1,54.6-24.6a2.708,2.708,0,0,1-.6,1.64,1.975,1.975,0,0,1-1.64.84A2.884,2.884,0,0,1,51-22.48a9.853,9.853,0,0,0-4.24-.92,9.724,9.724,0,0,0-4.88,1.18,8,8,0,0,0-3.2,3.32A10.411,10.411,0,0,0,37.56-14q0,4.72,2.54,7.16A9.212,9.212,0,0,0,46.76-4.4,9.2,9.2,0,0,0,51-5.32a3.214,3.214,0,0,1,1.28-.32,2.2,2.2,0,0,1,1.76.88,2.6,2.6,0,0,1,.6,1.64,2.169,2.169,0,0,1-.32,1.16,2.082,2.082,0,0,1-.92.8A14.648,14.648,0,0,1,46.76.4a15.714,15.714,0,0,1-7.2-1.66,12.775,12.775,0,0,1-5.24-4.9A14.875,14.875,0,0,1,32.36-14a14.436,14.436,0,0,1,1.86-7.32,13.2,13.2,0,0,1,5.14-5.06,14.992,14.992,0,0,1,7.4-1.82A14.245,14.245,0,0,1,53.36-26.64ZM81.2-3.92a2.356,2.356,0,0,1,.82.84A2.132,2.132,0,0,1,82.32-2a2.065,2.065,0,0,1-.48,1.32A2.259,2.259,0,0,1,80,.04,3.591,3.591,0,0,1,78.24-.4q-2.88-1.64-2.88-6.68a2.9,2.9,0,0,0-.94-2.28,3.922,3.922,0,0,0-2.7-.84H64.24v7.76a2.617,2.617,0,0,1-.58,1.76A1.923,1.923,0,0,1,62.12,0,3.1,3.1,0,0,1,60.1-.7a2.158,2.158,0,0,1-.86-1.74V-25.56a2.362,2.362,0,0,1,.7-1.74,2.362,2.362,0,0,1,1.74-.7H73.2a7.415,7.415,0,0,1,3.921,1.121A8.266,8.266,0,0,1,80.06-23.8a8.834,8.834,0,0,1,1.1,4.4,7.8,7.8,0,0,1-1.08,3.9,8.606,8.606,0,0,1-2.8,3.02,6.129,6.129,0,0,1,2.76,4.72,6.726,6.726,0,0,1,.12,1.24,12.741,12.741,0,0,0,.32,1.78,1.319,1.319,0,0,0,.72.82ZM73-14.32A1.991,1.991,0,0,0,74.4-15a5.162,5.162,0,0,0,1.12-1.82,6.773,6.773,0,0,0,.44-2.46,4.8,4.8,0,0,0-.44-2.06,4.22,4.22,0,0,0-1.12-1.5A2.186,2.186,0,0,0,73-23.4H64.24v9.08ZM87.2,0a.977.977,0,0,1-.8-.34,1.371,1.371,0,0,1-.28-.9v-.92a1.371,1.371,0,0,1,.28-.9.977.977,0,0,1,.8-.34h.16a.977.977,0,0,1,.8.34,1.371,1.371,0,0,1,.28.9v.92a1.371,1.371,0,0,1-.28.9.977.977,0,0,1-.8.34Zm15.84-20.6a8.723,8.723,0,0,1,4.76,1.34,9.185,9.185,0,0,1,3.32,3.72,11.693,11.693,0,0,1,1.2,5.34,11.78,11.78,0,0,1-1.22,5.38A9.71,9.71,0,0,1,107.76-1,8.38,8.38,0,0,1,103.04.4,8.023,8.023,0,0,1,98.68-.86a10.1,10.1,0,0,1-3.32-3.5V-.8a.8.8,0,0,1-.22.56.749.749,0,0,1-.58.24A.768.768,0,0,1,94-.24a.768.768,0,0,1-.24-.56V-28.76a.8.8,0,0,1,.22-.56.749.749,0,0,1,.58-.24.749.749,0,0,1,.58.24.8.8,0,0,1,.22.56v13.04a8.9,8.9,0,0,1,3.22-3.62,8.26,8.26,0,0,1,4.46-1.26Zm-.08,19.48a6.868,6.868,0,0,0,3.96-1.2,8.324,8.324,0,0,0,2.78-3.26,10.27,10.27,0,0,0,1.02-4.62,10.02,10.02,0,0,0-1.02-4.58,7.93,7.93,0,0,0-2.78-3.16,7.126,7.126,0,0,0-3.96-1.14,7.294,7.294,0,0,0-4.02,1.14,7.6,7.6,0,0,0-2.76,3.16,10.361,10.361,0,0,0-.98,4.58,10.57,10.57,0,0,0,1,4.64A8,8,0,0,0,98.96-2.3a7.017,7.017,0,0,0,4,1.18Zm30.4-3.68a.626.626,0,0,1,.48.22.723.723,0,0,1,.2.5.744.744,0,0,1-.16.48A10.66,10.66,0,0,1,130.6-.72,8.328,8.328,0,0,1,126.4.4a10.83,10.83,0,0,1-5.32-1.28,9.06,9.06,0,0,1-3.62-3.64,11.175,11.175,0,0,1-1.3-5.48,12,12,0,0,1,1.26-5.62,9.215,9.215,0,0,1,3.34-3.7,8.328,8.328,0,0,1,4.44-1.28,9.579,9.579,0,0,1,4.38,1.02,8.249,8.249,0,0,1,3.3,3.06,9.816,9.816,0,0,1,1.36,5.04.835.835,0,0,1-.24.58.74.74,0,0,1-.56.26H117.72v.52a10.257,10.257,0,0,0,1,4.54,7.683,7.683,0,0,0,2.96,3.26,8.869,8.869,0,0,0,4.72,1.2,7.367,7.367,0,0,0,3.62-.94,7.457,7.457,0,0,0,2.66-2.38.836.836,0,0,1,.68-.36ZM125.2-19a6.654,6.654,0,0,0-3.02.78,7.966,7.966,0,0,0-2.72,2.32,8.561,8.561,0,0,0-1.58,3.74H132.6v-.36a6.79,6.79,0,0,0-1.3-3.5,7.184,7.184,0,0,0-2.72-2.22A7.868,7.868,0,0,0,125.2-19ZM138.36-3.2a1.486,1.486,0,0,1-.28-.76.665.665,0,0,1,.32-.52.655.655,0,0,1,.48-.2.76.76,0,0,1,.64.32A7.461,7.461,0,0,0,146-1.04a6.579,6.579,0,0,0,3.72-1.06,3.274,3.274,0,0,0,1.6-2.86,3.082,3.082,0,0,0-1.4-2.76,12.49,12.49,0,0,0-3.84-1.52,14.816,14.816,0,0,1-5.1-2.14,4.387,4.387,0,0,1-1.86-3.78,4.829,4.829,0,0,1,1.88-3.9,7.39,7.39,0,0,1,4.84-1.54,8.811,8.811,0,0,1,3.26.64,8.143,8.143,0,0,1,2.94,2.04.719.719,0,0,1,.28.56.881.881,0,0,1-.28.64,1.246,1.246,0,0,1-.52.16.606.606,0,0,1-.48-.24,6.925,6.925,0,0,0-5.36-2.28,6.011,6.011,0,0,0-3.58,1.04,3.341,3.341,0,0,0-1.46,2.88,3.281,3.281,0,0,0,1.58,2.66,14.958,14.958,0,0,0,4.3,1.66A19.861,19.861,0,0,1,149.9-9.7a5.31,5.31,0,0,1,2.14,1.74,4.912,4.912,0,0,1,.8,2.92,4.714,4.714,0,0,1-1.94,3.98A8.2,8.2,0,0,1,145.84.4a9.206,9.206,0,0,1-7.48-3.6Zm27.16-16.92a.726.726,0,0,1,.52.24.726.726,0,0,1,.24.52.734.734,0,0,1-.22.54.734.734,0,0,1-.54.22h-4.4V-4.36a3.238,3.238,0,0,0,.62,2.34,2.221,2.221,0,0,0,1.58.58,1.943,1.943,0,0,0,.46-.08,2.012,2.012,0,0,1,.5-.08.626.626,0,0,1,.48.22.723.723,0,0,1,.2.5q0,.36-.48.62a2.316,2.316,0,0,1-1.12.26,8.506,8.506,0,0,1-1.68-.14,2.67,2.67,0,0,1-1.42-1.08,4.984,4.984,0,0,1-.74-3.06V-18.6h-3.28a.726.726,0,0,1-.52-.24.726.726,0,0,1-.24-.52.734.734,0,0,1,.22-.54.734.734,0,0,1,.54-.22h3.28V-25.2a.768.768,0,0,1,.24-.56.768.768,0,0,1,.56-.24.749.749,0,0,1,.58.24.8.8,0,0,1,.22.56v5.08Z" transform="translate(-810 527)" fill="#023c89"/>
    <ellipse id="Ellipse_30" data-name="Ellipse 30" cx="7" cy="8" rx="7" ry="8" transform="translate(-802 505)" fill="url(#linear-gradient)"/>
    <path id="Path_5013" data-name="Path 5013" d="M-801.031,512.983h-.018a.5.5,0,0,1-.482-.517c.115-3.221,1.561-5.652,3.686-6.194a6.5,6.5,0,0,1,5,.522.5.5,0,0,1,.145.692.5.5,0,0,1-.691.146,5.525,5.525,0,0,0-4.208-.391,3.346,3.346,0,0,0-1.984,1.635,7.618,7.618,0,0,0-.952,3.626A.5.5,0,0,1-801.031,512.983Z" fill="#fff"/>
  </g>
</svg>
