<svg width="47" height="45" viewBox="0 0 47 45" fill="none" xmlns="http://www.w3.org/2000/svg">
<rect x="0.5" y="0.5" width="46" height="43.83" rx="5.5" fill="#E3FEFE" stroke="#49DFE9"/>
<path d="M22.8364 16.428V24.3747H27.9015V22.9775H24.2337V16.428H22.8364Z" fill="#49DFE9"/>
<path d="M36.4786 22.7999C36.4786 16.141 31.0536 10.7251 24.3947 10.7251C18.422 10.7251 13.4508 15.1178 12.4891 20.7941H10.5496L13.8944 26.5577L17.3373 20.7941H15.3323C16.2498 16.6024 19.9691 13.5196 24.4012 13.5196C29.5191 13.5196 33.6841 17.6827 33.6841 22.8005C33.6841 27.2229 30.5212 30.9316 26.4167 31.8582V34.7069C32.0931 33.7451 36.4786 28.7724 36.4786 22.7999Z" fill="#49DFE9"/>
<path d="M12.601 33.4439L13.4895 32.4993C14.0669 31.8709 14.463 31.4007 14.678 31.082C14.893 30.7633 15.0005 30.3983 15.0005 29.9833C15.0005 29.3668 14.7983 28.8823 14.3938 28.5273C13.9894 28.1726 13.4264 27.9954 12.7047 27.9954C12.025 27.9954 11.4793 28.207 11.0674 28.6294C10.6554 29.0518 10.4569 29.579 10.472 30.1863L10.4811 30.2256H11.9695C11.9695 29.8763 12.0349 29.6656 12.1657 29.4716C12.2965 29.2775 12.4762 29.1746 12.7048 29.1746C12.9603 29.1746 13.152 29.2468 13.2798 29.3972C13.4076 29.5475 13.4715 29.7474 13.4715 30.0001C13.4715 30.1775 13.4083 30.3857 13.2821 30.6262C13.1558 30.8669 12.9737 31.14 12.7063 31.4469L10.6102 33.6656V34.6794H15.1513V33.4568H12.6145L12.601 33.4439Z" fill="#49DFE9"/>
<path d="M19.3432 28.1293H17.8586V28.1038L15.208 32.3462L15.2817 33.2816H17.8586V34.6789H19.3432V33.2816H20.0418V32.1464H19.3432V28.1293ZM17.8586 32.1464H16.5537L17.6814 30.2702L17.8151 30.0729L17.8586 30.0704V32.1464Z" fill="#49DFE9"/>
<path d="M25.0193 34.6796V31.8525C25.0193 31.6424 25.0245 31.4497 25.0013 31.2709C24.9424 30.8203 24.8202 30.4673 24.6137 30.2153C24.3249 29.8635 23.9326 29.6876 23.4274 29.6876C23.1718 29.6876 22.9569 29.7485 22.7449 29.8703C22.5328 29.9921 22.3121 30.1629 22.2247 30.3823V28.0427H20.6528V34.6796H22.2247V31.1083C22.2247 31.0302 22.3705 30.9693 22.4789 30.9257C22.587 30.8822 22.7065 30.8603 22.8539 30.8603C23.0855 30.8603 23.2552 30.931 23.368 31.0722C23.4808 31.2136 23.5347 31.4707 23.5347 31.8436V34.6796H24.0656H25.0193Z" fill="#49DFE9"/>
</svg>
