<svg width="47" height="45" viewBox="0 0 47 45" fill="none" xmlns="http://www.w3.org/2000/svg">
<rect x="0.5" y="0.5" width="46" height="43.8308" rx="5.5" fill="#FFF9E6" stroke="#FEC700"/>
<path d="M23 12.5H13V33.5H33V23" stroke="#FEC700" stroke-width="2" stroke-linecap="round"/>
<path d="M31.6038 10.6685C31.8158 10.4565 32.0674 10.2884 32.3443 10.1737C32.6212 10.059 32.918 10 33.2177 10C33.5174 10 33.8142 10.059 34.0911 10.1737C34.368 10.2884 34.6196 10.4565 34.8315 10.6685C35.0435 10.8804 35.2116 11.132 35.3263 11.4089C35.441 11.6858 35.5 11.9826 35.5 12.2823C35.5 12.582 35.441 12.8788 35.3263 13.1557C35.2116 13.4326 35.0435 13.6842 34.8315 13.8962L23.9381 24.7896L19.5 26L20.7104 21.5619L31.6038 10.6685Z" stroke="#FEC700" stroke-width="2" stroke-linecap="round" stroke-linejoin="round"/>
</svg>
