<svg width="47" height="61" viewBox="0 0 47 61" fill="none" xmlns="http://www.w3.org/2000/svg">
<path fill-rule="evenodd" clip-rule="evenodd" d="M44.7233 10.8929L35.7065 1.54039V7.625C35.7075 8.49139 36.0397 9.32202 36.6303 9.93465C37.221 10.5473 38.0218 10.8919 38.8571 10.8929H44.7233ZM0.0980734 2.46213C0.033768 2.72328 0.000307743 2.99378 0 3.26786V57.7321C0.000187357 57.899 0.0126627 58.0645 0.0369054 58.2274C0.588915 59.5217 1.67106 60.5357 3.01054 60.9966C3.05709 60.9988 3.10378 60.9999 3.15057 61H43.0579C43.1049 60.9999 43.1518 60.9988 43.1986 60.9966C44.5373 60.5359 45.6189 59.5227 46.1712 58.2295C46.1957 58.0659 46.2082 57.8997 46.2084 57.7321V13.9481C46.1484 13.6532 46.0811 13.3609 46.0068 13.0714H38.8571C37.4649 13.0698 36.1302 12.4955 35.1458 11.4744C34.1614 10.4534 33.6077 9.06898 33.6061 7.625V0.273427C33.2569 0.171872 32.9033 0.0806122 32.5456 0H3.15057C2.88474 0.000321121 2.6224 0.0354444 2.36922 0.102933C1.37265 0.611302 0.569196 1.44411 0.0980734 2.46213ZM7.64117 30.2327H39.1469C39.4254 30.2327 39.6926 30.1179 39.8895 29.9137C40.0865 29.7094 40.1971 29.4323 40.1971 29.1434C40.1971 28.8545 40.0865 28.5775 39.8895 28.3732C39.6926 28.1689 39.4254 28.0541 39.1469 28.0541H7.64117C7.36264 28.0541 7.09552 28.1689 6.89857 28.3732C6.70162 28.5775 6.59098 28.8545 6.59098 29.1434C6.59098 29.4323 6.70162 29.7094 6.89857 29.9137C7.09552 30.1179 7.36264 30.2327 7.64117 30.2327ZM39.1472 22.7212H7.64142C7.36289 22.7212 7.09577 22.6064 6.89882 22.4022C6.70187 22.1979 6.59123 21.9208 6.59123 21.6319C6.59123 21.343 6.70187 21.0659 6.89882 20.8617C7.09577 20.6574 7.36289 20.5426 7.64142 20.5426H39.1472C39.4257 20.5426 39.6928 20.6574 39.8898 20.8617C40.0867 21.0659 40.1974 21.343 40.1974 21.6319C40.1974 21.9208 40.0867 22.1979 39.8898 22.4022C39.6928 22.6064 39.4257 22.7212 39.1472 22.7212ZM7.64117 43.5247H39.1469C39.4254 43.5247 39.6926 43.4099 39.8895 43.2056C40.0865 43.0014 40.1971 42.7243 40.1971 42.4354C40.1971 42.1465 40.0865 41.8694 39.8895 41.6652C39.6926 41.4609 39.4254 41.3461 39.1469 41.3461H7.64117C7.36264 41.3461 7.09552 41.4609 6.89857 41.6652C6.70162 41.8694 6.59098 42.1465 6.59098 42.4354C6.59098 42.7243 6.70162 43.0014 6.89857 43.2056C7.09552 43.4099 7.36264 43.5247 7.64117 43.5247ZM39.1472 36.8052H7.64142C7.36289 36.8052 7.09577 36.6905 6.89882 36.4862C6.70187 36.2819 6.59123 36.0049 6.59123 35.716C6.59123 35.4271 6.70187 35.15 6.89882 34.9457C7.09577 34.7414 7.36289 34.6267 7.64142 34.6267H39.1472C39.4257 34.6267 39.6928 34.7414 39.8898 34.9457C40.0867 35.15 40.1974 35.4271 40.1974 35.716C40.1974 36.0049 40.0867 36.2819 39.8898 36.4862C39.6928 36.6905 39.4257 36.8052 39.1472 36.8052ZM7.64162 15.2097H17.0933C17.3719 15.2097 17.639 15.0949 17.8359 14.8907C18.0329 14.6864 18.1435 14.4093 18.1435 14.1204C18.1435 13.8315 18.0329 13.5545 17.8359 13.3502C17.639 13.1459 17.3719 13.0311 17.0933 13.0311H7.64162C7.36309 13.0311 7.09597 13.1459 6.89902 13.3502C6.70207 13.5545 6.59143 13.8315 6.59143 14.1204C6.59143 14.4093 6.70207 14.6864 6.89902 14.8907C7.09597 15.0949 7.36309 15.2097 7.64162 15.2097Z" fill="#A1F3F3"/>
</svg>
