<svg width="27" height="62" viewBox="0 0 27 62" fill="none" xmlns="http://www.w3.org/2000/svg">
<path d="M0.437912 45.6379C0.572561 45.492 0.73633 45.3754 0.918806 45.2957C1.10128 45.2159 1.29847 45.1747 1.49785 45.1747C1.69722 45.1747 1.89441 45.2159 2.07689 45.2957C2.25936 45.3754 2.42313 45.492 2.55778 45.6379L11.8529 55.429L11.8529 45.5037C11.8529 45.246 12.4178 45.0382 13.1157 45.0382L13.8856 45.0382C14.5835 45.0382 15.1505 45.2547 15.1505 45.5037L15.1505 55.429L24.4413 45.6379C24.5758 45.492 24.7393 45.3755 24.9216 45.2958C25.1039 45.2161 25.3009 45.1749 25.5001 45.1749C25.6993 45.1749 25.8964 45.2161 26.0787 45.2958C26.261 45.3755 26.4245 45.492 26.559 45.6379C26.8424 45.9417 27.0002 46.3403 27.001 46.7543C27.0018 47.1684 26.8455 47.5676 26.5634 47.8724L14.7143 60.3678C14.6719 60.4279 14.6252 60.4851 14.5747 60.5388C14.438 60.6851 14.2723 60.8017 14.088 60.8815C13.9038 60.9613 13.7049 61.0024 13.5039 61.0024C13.3029 61.0024 13.104 60.9613 12.9198 60.8815C12.7355 60.8017 12.5698 60.6851 12.4331 60.5388C12.3826 60.4851 12.3359 60.4279 12.2935 60.3678L0.437912 47.8724C0.156063 47.5676 -0.000324404 47.1689 -0.000324386 46.7552C-0.000324368 46.3414 0.156063 45.9427 0.437912 45.6379ZM13.445 57.1135L13.4995 57.1719L13.5541 57.1135L13.445 57.1135ZM11.8529 30.4816C11.8529 30.2239 12.4178 30.0161 13.1157 30.0161L13.8856 30.0161C14.5835 30.0161 15.1505 30.2326 15.1505 30.4816L15.1505 41.6367C15.1505 41.8943 14.2389 42.1 13.8856 42.1L13.1135 42.1C12.6577 42.1 11.8508 41.8835 11.8508 41.6367L11.8529 30.4816ZM11.8529 15.4681C11.8529 15.2105 12.4178 15.0026 13.1157 15.0026L13.8856 15.0026C14.5835 15.0026 15.1505 15.2191 15.1505 15.4681L15.1505 26.6319C15.1505 26.8895 14.2389 27.0952 13.8856 27.0952L13.1135 27.0952C12.6577 27.0952 11.8508 26.8787 11.8508 26.6319L11.8529 15.4681ZM11.8529 0.463351C11.8529 0.216519 12.4178 -6.37451e-07 13.1135 -6.0704e-07L13.8856 -5.73293e-07C14.5835 -5.42787e-07 15.1505 0.216519 15.1505 0.474177L15.1505 11.8328C15.1505 12.0948 14.2389 12.307 13.8856 12.307L13.1135 12.307C12.6577 12.307 11.8508 12.0904 11.8508 11.8328L11.8529 0.463351Z" fill="#4136A4"/>
</svg>
