<svg width="72" height="62" viewBox="0 0 72 62" fill="none" xmlns="http://www.w3.org/2000/svg">
<path fill-rule="evenodd" clip-rule="evenodd" d="M25.353 58.0728C25.3532 58.253 25.3676 58.4316 25.3957 58.6071C25.9494 59.8904 27.0252 60.8957 28.3554 61.3552C28.4108 61.3583 28.4664 61.3599 28.5221 61.3599H68.6642C69.5044 61.3589 70.31 61.0123 70.9041 60.396C71.4982 59.7798 71.8324 58.9443 71.8334 58.0728V13.1486H64.4388C63.0384 13.1469 61.6959 12.5692 60.7057 11.5421C59.7155 10.515 59.1585 9.1225 59.1569 7.66999V0H28.5221C27.6819 0.00101497 26.8764 0.347663 26.2823 0.963902C25.6881 1.58014 25.3539 2.41565 25.353 3.28714V58.0728ZM68.4703 5.91917L66.3928 3.76438C67.1376 4.42983 67.8322 5.15021 68.4703 5.91917ZM61.2696 1.54948L70.3395 10.9571H64.4388C63.5985 10.9562 62.793 10.6095 62.1989 9.99327C61.6048 9.37702 61.2706 8.5415 61.2696 7.66999V1.54948ZM40.4513 19.4019C40.2532 19.1964 40.1419 18.9177 40.1419 18.6271C40.1419 18.3365 40.2532 18.0578 40.4513 17.8523C40.6494 17.6469 40.9181 17.5314 41.1983 17.5314H66.5512C66.8314 17.5314 67.1001 17.6469 67.2982 17.8523C67.4963 18.0578 67.6076 18.3365 67.6076 18.6271C67.6076 18.9177 67.4963 19.1964 67.2982 19.4019C67.1001 19.6074 66.8314 19.7228 66.5512 19.7228H41.1983C40.9181 19.7228 40.6494 19.6074 40.4513 19.4019ZM30.6349 26.2971H51.7623C52.0425 26.2971 52.3112 26.1817 52.5093 25.9762C52.7074 25.7707 52.8187 25.492 52.8187 25.2014C52.8187 24.9108 52.7074 24.6321 52.5093 24.4266C52.3112 24.2211 52.0425 24.1057 51.7623 24.1057H30.6349C30.3547 24.1057 30.086 24.2211 29.8879 24.4266C29.6898 24.6321 29.5785 24.9108 29.5785 25.2014C29.5785 25.492 29.6898 25.7707 29.8879 25.9762C30.086 26.1817 30.3547 26.2971 30.6349 26.2971ZM47.5365 30.68H66.5512C66.8314 30.68 67.1001 30.7954 67.2982 31.0009C67.4963 31.2064 67.6076 31.4851 67.6076 31.7757C67.6076 32.0663 67.4963 32.345 67.2982 32.5505C67.1001 32.7559 66.8314 32.8714 66.5512 32.8714H47.5365C47.2564 32.8714 46.9877 32.7559 46.7896 32.5505C46.5915 32.345 46.4802 32.0663 46.4802 31.7757C46.4802 31.4851 46.5915 31.2064 46.7896 31.0009C46.9877 30.7954 47.2564 30.68 47.5365 30.68ZM30.6349 39.4457H55.9878C56.268 39.4457 56.5367 39.3303 56.7348 39.1248C56.9329 38.9193 57.0442 38.6406 57.0442 38.35C57.0442 38.0594 56.9329 37.7807 56.7348 37.5752C56.5367 37.3697 56.268 37.2543 55.9878 37.2543H30.6349C30.3547 37.2543 30.086 37.3697 29.8879 37.5752C29.6898 37.7807 29.5785 38.0594 29.5785 38.35C29.5785 38.6406 29.6898 38.9193 29.8879 39.1248C30.086 39.3303 30.3547 39.4457 30.6349 39.4457ZM36.9731 19.7229H30.6349C30.3547 19.7229 30.086 19.6074 29.8879 19.4019C29.6898 19.1964 29.5785 18.9177 29.5785 18.6271C29.5785 18.3365 29.6898 18.0578 29.8879 17.8524C30.086 17.6469 30.3547 17.5314 30.6349 17.5314H36.9731C37.2533 17.5314 37.5219 17.6469 37.7201 17.8524C37.9182 18.0578 38.0295 18.3365 38.0295 18.6271C38.0295 18.9177 37.9182 19.1964 37.7201 19.4019C37.5219 19.6074 37.2533 19.7229 36.9731 19.7229ZM66.5515 24.1057H55.9878C55.7076 24.1057 55.4389 24.2212 55.2408 24.4266C55.0427 24.6321 54.9314 24.9108 54.9314 25.2014C54.9314 25.492 55.0427 25.7707 55.2408 25.9762C55.4389 26.1817 55.7076 26.2971 55.9878 26.2971H66.5515C66.8317 26.2971 67.1004 26.1817 67.2985 25.9762C67.4966 25.7707 67.6079 25.492 67.6079 25.2014C67.6079 24.9108 67.4966 24.6321 67.2985 24.4266C67.1004 24.2212 66.8317 24.1057 66.5515 24.1057ZM43.3113 32.8714H30.6349C30.3547 32.8714 30.086 32.756 29.8879 32.5505C29.6898 32.345 29.5785 32.0663 29.5785 31.7757C29.5785 31.4851 29.6898 31.2064 29.8879 31.0009C30.086 30.7954 30.3547 30.68 30.6349 30.68H43.3113C43.5915 30.68 43.8602 30.7954 44.0583 31.0009C44.2564 31.2064 44.3677 31.4851 44.3677 31.7757C44.3677 32.0663 44.2564 32.345 44.0583 32.5505C43.8602 32.756 43.5915 32.8714 43.3113 32.8714ZM66.5512 37.2543H60.213C59.9328 37.2543 59.6641 37.3697 59.466 37.5752C59.2679 37.7807 59.1566 38.0594 59.1566 38.35C59.1566 38.6406 59.2679 38.9193 59.466 39.1248C59.6641 39.3302 59.9328 39.4457 60.213 39.4457H66.5512C66.8314 39.4457 67.1001 39.3302 67.2982 39.1248C67.4963 38.9193 67.6076 38.6406 67.6076 38.35C67.6076 38.0594 67.4963 37.7807 67.2982 37.5752C67.1001 37.3697 66.8314 37.2543 66.5512 37.2543ZM47.5365 50.4028H58.1003C58.3804 50.4028 58.6491 50.5183 58.8472 50.7238C59.0453 50.9292 59.1566 51.2079 59.1566 51.4985C59.1566 51.7891 59.0453 52.0678 58.8472 52.2733C58.6491 52.4788 58.3804 52.5943 58.1003 52.5943H47.5365C47.2564 52.5943 46.9877 52.4788 46.7896 52.2733C46.5915 52.0678 46.4802 51.7891 46.4802 51.4985C46.4802 51.2079 46.5915 50.9292 46.7896 50.7238C46.9877 50.5183 47.2564 50.4028 47.5365 50.4028ZM30.6349 52.5943H43.3113C43.5915 52.5943 43.8602 52.4788 44.0583 52.2733C44.2564 52.0679 44.3677 51.7892 44.3677 51.4986C44.3677 51.208 44.2564 50.9293 44.0583 50.7238C43.8602 50.5183 43.5915 50.4028 43.3113 50.4028H30.6349C30.3547 50.4028 30.086 50.5183 29.8879 50.7238C29.6898 50.9293 29.5785 51.208 29.5785 51.4986C29.5785 51.7892 29.6898 52.0679 29.8879 52.2733C30.086 52.4788 30.3547 52.5943 30.6349 52.5943ZM39.0858 46.02H30.6349C30.3547 46.02 30.086 45.9045 29.8879 45.699C29.6898 45.4935 29.5785 45.2148 29.5785 44.9242C29.5785 44.6336 29.6898 44.3549 29.8879 44.1495C30.086 43.944 30.3547 43.8285 30.6349 43.8285H39.0858C39.366 43.8285 39.6347 43.944 39.8328 44.1495C40.0309 44.3549 40.1422 44.6336 40.1422 44.9242C40.1422 45.2148 40.0309 45.4935 39.8328 45.699C39.6347 45.9045 39.366 46.02 39.0858 46.02ZM30.6358 13.1486H43.3122C43.5924 13.1486 43.8611 13.0331 44.0592 12.8276C44.2573 12.6222 44.3686 12.3435 44.3686 12.0529C44.3686 11.7623 44.2573 11.4836 44.0592 11.2781C43.8611 11.0726 43.5924 10.9571 43.3122 10.9571H30.6358C30.3556 10.9571 30.0869 11.0726 29.8888 11.2781C29.6907 11.4836 29.5794 11.7623 29.5794 12.0529C29.5794 12.3435 29.6907 12.6222 29.8888 12.8276C30.0869 13.0331 30.3556 13.1486 30.6358 13.1486ZM54.622 44.1495C54.8201 44.3549 54.9314 44.6336 54.9314 44.9242C54.9314 45.2148 54.8201 45.4935 54.622 45.699C54.4239 45.9045 54.1552 46.02 53.875 46.02H43.3113C43.0312 46.02 42.7625 45.9045 42.5644 45.699C42.3662 45.4935 42.255 45.2148 42.255 44.9242C42.255 44.6336 42.3662 44.3549 42.5644 44.1495C42.7625 43.944 43.0312 43.8285 43.3113 43.8285H53.875C54.1552 43.8285 54.4239 43.944 54.622 44.1495ZM66.5518 43.8285H58.1008C57.8207 43.8285 57.552 43.944 57.3539 44.1495C57.1557 44.3549 57.0445 44.6336 57.0445 44.9242C57.0445 45.2148 57.1557 45.4935 57.3539 45.699C57.552 45.9045 57.8207 46.02 58.1008 46.02H66.5518C66.832 46.02 67.1007 45.9045 67.2988 45.699C67.4969 45.4935 67.6082 45.2148 67.6082 44.9242C67.6082 44.6336 67.4969 44.3549 67.2988 44.1495C67.1007 43.944 66.832 43.8285 66.5518 43.8285ZM62.326 50.4028H66.5515C66.8317 50.4028 67.1004 50.5183 67.2985 50.7238C67.4966 50.9292 67.6079 51.2079 67.6079 51.4985C67.6079 51.7891 67.4966 52.0678 67.2985 52.2733C67.1004 52.4788 66.8317 52.5943 66.5515 52.5943H62.326C62.0459 52.5943 61.7772 52.4788 61.5791 52.2733C61.381 52.0678 61.2697 51.7891 61.2697 51.4985C61.2697 51.2079 61.381 50.9292 61.5791 50.7238C61.7772 50.5183 62.0459 50.4028 62.326 50.4028Z" fill="#FFA78E"/>
<path fill-rule="evenodd" clip-rule="evenodd" d="M22.9939 6.66649C22.4666 6.60888 21.9357 6.5687 21.402 6.54639L1.93021 11.7638C1.27509 11.9402 0.716571 12.3718 0.370055 12.9676C0.199627 13.3495 0.0764616 13.7536 0.00583832 14.1708C-0.0137029 14.4732 0.0157088 14.7805 0.0956004 15.08L11.7791 58.6832C12.6717 59.9534 14.1192 60.7459 15.679 60.8054L22.9939 58.8454V51.313L14.9228 53.4757C14.6982 53.5359 14.458 53.501 14.255 53.3789C14.052 53.2567 13.9029 53.0571 13.8405 52.8242C13.7781 52.5912 13.8074 52.3438 13.9221 52.1365C14.0368 51.9292 14.2274 51.779 14.452 51.7188L22.9939 49.43V45.3776C22.7971 45.2549 22.6526 45.0586 22.5914 44.8303C22.529 44.5973 22.5584 44.3499 22.673 44.1426C22.75 44.0035 22.8612 43.8901 22.9939 43.8123V40.0148L12.0986 42.9342C11.874 42.9944 11.6338 42.9596 11.4308 42.8374C11.2278 42.7152 11.0787 42.5157 11.0163 42.2827C10.9539 42.0497 10.9832 41.8024 11.0979 41.5951C11.2126 41.3878 11.4032 41.2375 11.6278 41.1773L22.9939 38.1318V28.7162L9.27268 32.3928C9.04807 32.453 8.80785 32.4181 8.60488 32.2959C8.40191 32.1738 8.25281 31.9742 8.19038 31.7412C8.12796 31.5083 8.15732 31.2609 8.272 31.0536C8.38669 30.8463 8.5773 30.696 8.80192 30.6359L22.9939 26.8331V23.0673L16.3298 24.8529C16.1052 24.9131 15.8649 24.8783 15.662 24.7561C15.459 24.6339 15.3099 24.4344 15.2475 24.2014C15.1851 23.9684 15.2144 23.7211 15.3291 23.5138C15.4438 23.3065 15.6344 23.1562 15.859 23.096L22.9939 21.1842V6.66649ZM7.86144 27.122L12.9429 25.7605C13.1676 25.7003 13.3582 25.55 13.4729 25.3427C13.5875 25.1354 13.6169 24.888 13.5545 24.6551C13.492 24.4221 13.3429 24.2226 13.14 24.1004C12.937 23.9782 12.6968 23.9434 12.4722 24.0035L7.39067 25.3651C7.16606 25.4253 6.97544 25.5756 6.86075 25.7829C6.74607 25.9902 6.71671 26.2375 6.77914 26.4705C6.84156 26.7035 6.99066 26.903 7.19363 27.0252C7.3966 27.1474 7.63682 27.1822 7.86144 27.122ZM10.6856 37.6635L20.8486 34.9403C21.0733 34.8801 21.2639 34.7298 21.3786 34.5225C21.4932 34.3152 21.5226 34.0679 21.4602 33.8349C21.3977 33.6019 21.2487 33.4024 21.0457 33.2802C20.8427 33.158 20.6025 33.1232 20.3779 33.1834L10.2149 35.9066C9.99026 35.9667 9.79964 36.117 9.68496 36.3243C9.57027 36.5316 9.54091 36.779 9.60334 37.0119C9.66577 37.2449 9.81487 37.4445 10.0178 37.5666C10.2208 37.6888 10.461 37.7237 10.6856 37.6635ZM13.5098 48.2049L20.2852 46.3895C20.5098 46.3293 20.7004 46.179 20.8151 45.9717C20.9298 45.7644 20.9591 45.5171 20.8967 45.2841C20.8343 45.0511 20.6852 44.8516 20.4822 44.7294C20.2792 44.6072 20.039 44.5724 19.8144 44.6326L13.0391 46.448C12.8145 46.5082 12.6238 46.6585 12.5092 46.8658C12.3945 47.0731 12.3651 47.3204 12.4275 47.5534C12.49 47.7864 12.6391 47.9859 12.842 48.1081C13.045 48.2303 13.2852 48.2651 13.5098 48.2049ZM16.6131 19.1278L6.4501 21.851C6.22548 21.9112 5.98527 21.8764 5.7823 21.7542C5.57933 21.632 5.43023 21.4325 5.3678 21.1995C5.30537 20.9665 5.33473 20.7192 5.44942 20.5119C5.5641 20.3046 5.75472 20.1543 5.97933 20.0941L16.1423 17.3709C16.367 17.3107 16.6072 17.3456 16.8101 17.4678C17.0131 17.5899 17.1622 17.7895 17.2246 18.0225C17.2871 18.2554 17.2577 18.5028 17.143 18.7101C17.0283 18.9174 16.8377 19.0677 16.6131 19.1278Z" fill="#FFA78E" fill-opacity="0.3"/>
</svg>
