<svg width="100" height="62" viewBox="0 0 100 62" fill="none" xmlns="http://www.w3.org/2000/svg">
<path fill-rule="evenodd" clip-rule="evenodd" d="M73.8929 10.9656L64.816 1.55068V7.67595C64.8169 8.54813 65.1514 9.38431 65.746 10.001C66.3405 10.6178 67.1467 10.9647 67.9876 10.9656H73.8929ZM29.8014 0.964651C29.2068 1.58137 28.8724 2.41752 28.8714 3.28969V58.1179C28.8724 58.9901 29.2068 59.8263 29.8014 60.443C30.396 61.0597 31.2021 61.4066 32.043 61.4076H72.2163C73.0572 61.4066 73.8633 61.0597 74.4579 60.443C75.0525 59.8263 75.3869 58.9901 75.3879 58.1179V13.9564C75.3346 13.6885 75.2757 13.4225 75.2113 13.1588H67.9876C66.5861 13.1571 65.2425 12.579 64.2515 11.5511C63.2606 10.5232 62.7032 9.12959 62.7016 7.67595V0H32.043C31.2021 0.00101575 30.396 0.347934 29.8014 0.964651ZM71.6687 56.5421H70.7257V44.0709C70.7257 43.4904 70.2072 43.0182 69.57 43.0182H67.4622C66.8249 43.0182 66.3065 43.4905 66.3065 44.0709V56.5421H63.912V49.7214C63.912 49.1409 63.3936 48.6686 62.7563 48.6686H60.6485C60.0112 48.6686 59.4928 49.1409 59.4928 49.7214V56.5421H57.0984V53.0097C57.0984 52.4292 56.5799 51.957 55.9426 51.957H53.8348C53.1975 51.957 52.6791 52.4293 52.6791 53.0097V56.5421H51.6852C51.4477 56.5421 51.2553 56.7174 51.2553 56.9337C51.2553 57.15 51.4477 57.3253 51.6852 57.3253H71.6687C71.9062 57.3253 72.0987 57.15 72.0987 56.9337C72.0987 56.7174 71.9062 56.5421 71.6687 56.5421ZM56.2384 56.5421H53.5389V53.0097C53.5389 52.8611 53.6716 52.7402 53.8348 52.7402H55.9425C56.1057 52.7402 56.2384 52.8611 56.2384 53.0097V56.5421ZM63.0521 56.5421H60.3526V49.7214C60.3526 49.5727 60.4853 49.4518 60.6485 49.4518H62.7562C62.9194 49.4518 63.0521 49.5727 63.0521 49.7214V56.5421ZM69.8659 56.5421H67.1664V44.0709C67.1664 43.9223 67.2991 43.8014 67.4622 43.8014H69.57C69.7331 43.8014 69.8659 43.9223 69.8659 44.0709V56.5421ZM66.8376 40.7199C66.8916 40.8176 66.9039 40.9306 66.8805 41.0315C66.8796 41.0376 66.8791 41.0438 66.878 41.0499L66.4855 43.1833C66.4475 43.3902 66.2699 43.5157 66.0889 43.4637C65.908 43.4116 65.7921 43.2017 65.8302 42.9949L66.0631 41.7283L61.862 44.6981C61.7071 44.8076 61.4996 44.7479 61.3985 44.5649L60.4338 42.817L53.5845 47.6589C53.5071 47.7137 53.4165 47.7261 53.3326 47.702C53.2488 47.6779 53.1716 47.6172 53.1211 47.5257C53.02 47.3426 53.0637 47.1054 53.2185 46.9959L60.3482 41.9558C60.4226 41.9032 60.5132 41.8877 60.6001 41.9127C60.687 41.9377 60.7631 42.0012 60.8116 42.0891L61.7764 43.8369L65.6971 41.0653L64.4729 40.7132C64.2919 40.6612 64.1761 40.4513 64.2141 40.2444C64.2522 40.0375 64.4297 39.912 64.6107 39.964L66.5933 40.5341C66.596 40.5349 66.5987 40.5359 66.6013 40.5368L66.609 40.5396C66.6994 40.56 66.7837 40.6222 66.8376 40.7199ZM35.0974 22.8062H70.2101C70.5205 22.8062 70.8182 22.6907 71.0377 22.485C71.2572 22.2794 71.3805 22.0005 71.3805 21.7097C71.3805 21.4188 71.2572 21.1399 71.0377 20.9343C70.8182 20.7286 70.5205 20.6131 70.2101 20.6131H35.0974C34.787 20.6131 34.4893 20.7286 34.2698 20.9343C34.0503 21.1399 33.927 21.4188 33.927 21.7097C33.927 22.0005 34.0503 22.2794 34.2698 22.485C34.4893 22.6907 34.787 22.8062 35.0974 22.8062ZM70.2101 27.1925H35.0974C34.787 27.1925 34.4893 27.0769 34.2698 26.8713C34.0503 26.6656 33.927 26.3867 33.927 26.0959C33.927 25.8051 34.0503 25.5262 34.2698 25.3205C34.4893 25.1149 34.787 24.9993 35.0974 24.9993H70.2101C70.5205 24.9993 70.8182 25.1149 71.0377 25.3205C71.2572 25.5262 71.3805 25.8051 71.3805 26.0959C71.3805 26.3867 71.2572 26.6656 71.0377 26.8713C70.8182 27.0769 70.5205 27.1925 70.2101 27.1925ZM35.0974 31.5787H70.2101C70.5205 31.5787 70.8182 31.4632 71.0377 31.2575C71.2572 31.0519 71.3805 30.773 71.3805 30.4821C71.3805 30.1913 71.2572 29.9124 71.0377 29.7068C70.8182 29.5011 70.5205 29.3856 70.2101 29.3856H35.0974C34.787 29.3856 34.4893 29.5011 34.2698 29.7068C34.0503 29.9124 33.927 30.1913 33.927 30.4821C33.927 30.773 34.0503 31.0519 34.2698 31.2575C34.4893 31.4632 34.787 31.5787 35.0974 31.5787ZM70.2101 18.42H35.0974C34.787 18.42 34.4893 18.3044 34.2698 18.0988C34.0503 17.8931 33.927 17.6142 33.927 17.3234C33.927 17.0326 34.0503 16.7536 34.2698 16.548C34.4893 16.3424 34.787 16.2268 35.0974 16.2268H70.2101C70.5205 16.2268 70.8182 16.3424 71.0377 16.548C71.2572 16.7536 71.3805 17.0326 71.3805 17.3234C71.3805 17.6142 71.2572 17.8931 71.0377 18.0988C70.8182 18.3044 70.5205 18.42 70.2101 18.42ZM34.3861 39.803H53.2515C53.4183 39.803 53.5783 39.7108 53.6962 39.5467C53.8141 39.3826 53.8804 39.1601 53.8804 38.928C53.8804 38.696 53.8141 38.4735 53.6962 38.3094C53.5783 38.1453 53.4183 38.0531 53.2515 38.0531H34.3861C34.2193 38.0531 34.0594 38.1453 33.9414 38.3094C33.8235 38.4735 33.7573 38.696 33.7573 38.928C33.7573 39.1601 33.8235 39.3826 33.9414 39.5467C34.0594 39.7108 34.2193 39.803 34.3861 39.803ZM70.203 35.4284H34.9329C34.6211 35.4284 34.322 35.3362 34.1016 35.1721C33.8811 35.008 33.7572 34.7855 33.7572 34.5534C33.7572 34.3214 33.8811 34.0989 34.1016 33.9348C34.322 33.7707 34.6211 33.6785 34.9329 33.6785H70.203C70.5149 33.6785 70.8139 33.7707 71.0344 33.9348C71.2548 34.0989 71.3787 34.3214 71.3787 34.5534C71.3787 34.7855 71.2548 35.008 71.0344 35.1721C70.8139 35.3362 70.5149 35.4284 70.203 35.4284ZM34.9515 14.0337H44.4663C44.7467 14.0337 45.0156 13.9182 45.2138 13.7125C45.4121 13.5069 45.5235 13.2279 45.5235 12.9371C45.5235 12.6463 45.4121 12.3674 45.2138 12.1617C45.0156 11.9561 44.7467 11.8406 44.4663 11.8406H34.9515C34.6712 11.8406 34.4023 11.9561 34.204 12.1617C34.0057 12.3674 33.8943 12.6463 33.8943 12.9371C33.8943 13.2279 34.0057 13.5069 34.204 13.7125C34.4023 13.9182 34.6712 14.0337 34.9515 14.0337Z" fill="#A36DFF"/>
<path fill-rule="evenodd" clip-rule="evenodd" d="M26.247 10.5993L25.0779 10.1519C24.8836 10.1257 24.6887 10.1029 24.4932 10.0834L26.247 13.8259V10.5993ZM26.247 16.4086C25.6866 15.9925 25.2292 15.4369 24.9246 14.7886L22.6806 10C22.2049 10.0036 21.7278 10.0273 21.2506 10.0716L1.36419 19.3902C0.786188 19.6619 0.343551 20.1603 0.133374 20.7761C-0.0768018 21.3919 -0.0373537 22.0748 0.243065 22.675L17.9137 60.3849C18.1955 60.9845 18.695 61.4518 19.3027 61.6843C19.9104 61.9169 20.5766 61.8957 21.1553 61.6254L26.247 59.2394V41.1183L15.8055 46.0111C15.6907 46.0649 15.551 46.053 15.417 45.9782C15.283 45.9034 15.1657 45.7717 15.091 45.6121C15.0162 45.4525 14.99 45.2781 15.0183 45.1272C15.0465 44.9763 15.1268 44.8614 15.2415 44.8076L26.247 39.6505V37.4478L14.7692 42.8261C14.5548 42.9266 14.3194 42.9596 14.1149 42.9178C13.9103 42.876 13.7534 42.7629 13.6786 42.6033C13.6039 42.4437 13.6173 42.2507 13.7161 42.0668C13.8149 41.8829 13.9908 41.7231 14.2053 41.6226L26.247 35.98V34.2192L13.6418 40.1259C13.4283 40.2259 13.1863 40.2424 12.9691 40.1717C12.7518 40.101 12.5771 39.9489 12.4834 39.7489C12.3897 39.5489 12.3846 39.3173 12.4693 39.1051C12.554 38.8929 12.7215 38.7175 12.935 38.6175L26.247 32.3796V30.5397L12.2275 37.1091C12.014 37.2092 11.772 37.2256 11.5547 37.1549C11.3375 37.0842 11.1628 36.9322 11.0691 36.7321C10.9753 36.5321 10.9702 36.3005 11.0549 36.0883C11.1396 35.8762 11.3071 35.7008 11.5206 35.6007L26.247 28.7001V26.8606L10.8141 34.0923C10.6006 34.1923 10.3586 34.2088 10.1414 34.1381C9.92411 34.0674 9.74941 33.9153 9.65568 33.7153C9.56194 33.5153 9.55686 33.2837 9.64155 33.0715C9.72624 32.8594 9.89376 32.6839 10.1073 32.5839L26.247 25.0209V23.1812L9.39977 31.0757C9.18627 31.1758 8.94429 31.1923 8.72704 31.1216C8.5098 31.0509 8.33509 30.8988 8.24136 30.6987C8.14763 30.4987 8.14255 30.2671 8.22724 30.055C8.31193 29.8428 8.47945 29.6674 8.69295 29.5673L26.247 21.3416V16.4086ZM14.4325 25.0388L7.88838 28.1054C7.69554 28.1957 7.47336 28.2029 7.27072 28.1254C7.06808 28.0478 6.90158 27.8919 6.80785 27.6919C6.71412 27.4919 6.70084 27.2641 6.77092 27.0588C6.841 26.8535 6.98871 26.6873 7.18156 26.597L13.7256 23.5304C13.9185 23.4401 14.1407 23.4329 14.3433 23.5104C14.5459 23.588 14.7124 23.7439 14.8062 23.9439C14.8999 24.144 14.9132 24.3717 14.8431 24.577C14.773 24.7824 14.6253 24.9485 14.4325 25.0388Z" fill="#A36DFF" fill-opacity="0.3"/>
<path fill-rule="evenodd" clip-rule="evenodd" d="M77.8668 58.16L84.8384 61.4272C85.3359 61.6596 85.9086 61.6779 86.431 61.478C86.9534 61.2781 87.3828 60.8765 87.625 60.3611L99.6327 34.7391C99.7218 34.3852 99.7954 34.0298 99.8537 33.6738L95.7066 31.7303C94.8785 31.3411 94.2444 30.627 93.9433 29.7447C93.6422 28.8625 93.6988 27.8841 94.1006 27.0242L96.2274 22.4861L78.1017 13.9916C78.025 13.9558 77.9466 13.925 77.8668 13.8994V22.4195L82.1644 24.4336C82.3302 24.5113 82.4572 24.6541 82.5174 24.8306C82.5776 25.0071 82.5662 25.2029 82.4856 25.3748C82.405 25.5467 82.2619 25.6808 82.0877 25.7474C81.9135 25.8141 81.7225 25.8079 81.5568 25.7302L77.8668 24.0009V25.5814L96.1712 34.1597C96.3547 34.2457 96.4987 34.3965 96.5715 34.5789C96.6443 34.7613 96.6399 34.9604 96.5593 35.1323C96.4787 35.3042 96.3285 35.435 96.1418 35.4957C95.955 35.5565 95.747 35.5423 95.5635 35.4563L77.8668 27.1628V28.7441L94.9537 36.7519C95.1373 36.8379 95.2812 36.9887 95.354 37.1711C95.4268 37.3535 95.4225 37.5525 95.3419 37.7245C95.2613 37.8964 95.1111 38.0271 94.9244 38.0879C94.7376 38.1487 94.5296 38.1345 94.3461 38.0485L77.8668 30.3255V31.9068L93.7392 39.3454C93.9227 39.4314 94.0667 39.5822 94.1395 39.7646C94.2123 39.947 94.2079 40.146 94.1273 40.318C94.0468 40.4899 93.8966 40.6207 93.7098 40.6814C93.5231 40.7422 93.3151 40.728 93.1316 40.642L77.8668 33.4882V35.07L92.5227 41.9385C92.7062 42.0245 92.8502 42.1753 92.923 42.3577C92.9958 42.54 92.9914 42.7391 92.9108 42.9111C92.8302 43.083 92.6801 43.2137 92.4933 43.2745C92.3066 43.3353 92.0985 43.3211 91.915 43.2351L77.8668 36.6514V38.1666L91.3277 44.475C91.5121 44.5614 91.6633 44.6988 91.7482 44.8569C91.8331 45.015 91.8447 45.1809 91.7804 45.3181C91.7161 45.4552 91.5812 45.5525 91.4054 45.5884C91.2296 45.6243 91.0273 45.596 90.8429 45.5096L77.8668 39.4284V41.3206L80.0963 42.3654C80.1949 42.4116 80.2639 42.5104 80.2882 42.6401C80.3125 42.7698 80.29 42.9197 80.2257 43.0569C80.1614 43.1941 80.0606 43.3073 79.9454 43.3716C79.8302 43.4359 79.7101 43.4461 79.6115 43.3999L77.8668 42.5823V47.5948L83.2116 46.6382C83.2701 46.6277 83.328 46.6437 83.3724 46.6825C83.4169 46.7214 83.4443 46.78 83.4486 46.8454L83.5348 48.146L86.6207 47.5937L85.9945 47.0464C85.9019 46.9655 85.8915 46.8093 85.9713 46.6975C86.0512 46.5857 86.1909 46.5607 86.2835 46.6417L87.2977 47.528C87.3004 47.5304 87.3028 47.5331 87.3054 47.5356C87.3532 47.5727 87.3858 47.6328 87.3906 47.7055C87.3955 47.7783 87.3715 47.8485 87.3297 47.9017L87.3273 47.9054C87.3259 47.9076 87.3246 47.9097 87.3231 47.9118L86.4999 49.0644C86.4201 49.1762 86.2804 49.2012 86.1878 49.1203C86.0952 49.0393 86.0849 48.8832 86.1647 48.7714L86.6533 48.0871L83.3467 48.6789C83.2248 48.7007 83.1187 48.608 83.1097 48.4717L83.0235 47.1711L77.8668 48.094V51.3467C78.2216 51.5316 78.383 51.9402 78.2267 52.2736L77.8668 53.0415V54.652L78.6636 55.0254L80.5534 50.9929C80.7142 50.6497 81.1516 50.5142 81.5284 50.6907L82.7745 51.2747C83.1513 51.4513 83.327 51.8741 83.1661 52.2173L81.2763 56.2498L82.6919 56.9133L86.1473 49.5402C86.3081 49.197 86.7455 49.0614 87.1223 49.238L88.3684 49.822C88.7452 49.9986 88.9209 50.4214 88.76 50.7646L85.3046 58.1377L85.8621 58.399C86.0025 58.4648 86.0678 58.6218 86.0078 58.7496C85.9479 58.8775 85.7855 58.9278 85.6451 58.862L77.8668 55.2167V58.16ZM99.8056 32.0699L97.0478 23.9887L95.3507 27.6101C95.1096 28.126 95.0756 28.713 95.2563 29.2424C95.4369 29.7717 95.8174 30.2002 96.3143 30.4337L99.8056 32.0699ZM80.7679 56.0116L79.1719 55.2636L81.0618 51.2311C81.1029 51.1433 81.2149 51.1086 81.3114 51.1538L82.5575 51.7378C82.6539 51.783 82.6989 51.8912 82.6577 51.9791L80.7679 56.0116ZM84.7963 57.8995L83.2003 57.1515L86.6557 49.7784C86.6969 49.6905 86.8088 49.6558 86.9053 49.701L88.1514 50.285C88.2479 50.3302 88.2928 50.4385 88.2517 50.5264L84.7963 57.8995Z" fill="#A36DFF" fill-opacity="0.3"/>
</svg>
