<svg width="494" height="431" viewBox="0 0 494 431" fill="none" xmlns="http://www.w3.org/2000/svg">
<path d="M119.432 375.977C119.596 375.977 136.027 375.242 146.549 365.147C150.401 361.459 153.202 353.751 153.848 345.026C155.075 328.623 155.351 302.304 155.351 281.918C155.351 265.358 155.168 252.711 155.164 252.432V252.317V252.198C155.326 248.218 155.72 244.251 156.345 240.316C156.835 237.041 157.621 233.816 158.692 230.682C159.657 227.454 161.518 224.566 164.059 222.352C166.952 219.718 170.26 217.58 173.85 216.023C178.098 214.316 182.597 213.318 187.169 213.07C205.11 211.671 223.132 211.671 241.072 213.07L240.097 223.406C222.75 222.086 205.327 222.086 187.98 223.406C179.305 224.083 175.247 226.334 170.794 230.259L170.641 230.392L170.476 230.514C170.383 230.585 168.19 232.329 166.622 241.868C166.069 245.357 165.714 248.875 165.558 252.404C165.616 256.434 166.439 315.988 164.213 345.797C163.859 350.908 162.801 355.947 161.07 360.77C159.556 365.227 157.051 369.284 153.744 372.636C140.301 385.531 120.614 386.322 119.783 386.341L119.44 375.959L119.432 375.977Z" fill="url(#paint0_linear)"/>
<path d="M89.7398 221.599V212.979H238.199V221.599H89.7398Z" fill="url(#paint1_linear)"/>
<path d="M119.531 59.0115H119.543L119.887 48.5928C120.721 48.6199 140.452 49.4137 153.931 62.3578C157.245 65.7213 159.754 69.7909 161.27 74.262C163.006 79.1021 164.066 84.1581 164.421 89.2877C165.671 106.166 165.967 132.536 165.967 153.05C165.967 168.903 165.796 181.249 165.771 183.012C165.927 186.554 166.284 190.084 166.838 193.585C168.399 203.158 170.608 204.908 170.701 204.979L170.866 205.102L171.02 205.235C175.486 209.165 179.553 211.422 188.247 212.112C191.105 212.278 193.971 212.299 196.832 212.176C198.476 212.135 200.166 212.093 201.931 212.095C216.196 212.026 230.431 210.771 244.489 208.345L246.437 218.58C231.738 221.149 216.847 222.463 201.924 222.509C200.299 222.509 198.667 222.549 197.088 222.589C193.87 222.723 190.648 222.692 187.434 222.495C182.851 222.246 178.341 221.244 174.083 219.531C170.484 217.969 167.168 215.823 164.269 213.18C161.721 210.958 159.856 208.06 158.889 204.821C157.815 201.676 157.028 198.439 156.536 195.152C155.91 191.204 155.515 187.223 155.352 183.229V183.11V182.994C155.352 182.369 156.261 119.916 154.033 90.0711C153.379 81.3194 150.579 73.5805 146.719 69.8839C136.163 59.7486 119.702 59.0177 119.531 59.0115Z" fill="url(#paint2_linear)"/>
<path d="M325.935 197.62H304.022" stroke="#A26DFF" stroke-width="6"/>
<path d="M325.935 237.211H304.022" stroke="#5DC7C7" stroke-width="6"/>
<path d="M325.935 218.311H304.022" stroke="#FFA78E" stroke-width="6"/>
<g filter="url(#filter0_d)">
<path d="M304.029 257.625V177.36C304.029 171.606 299.365 166.941 293.611 166.941H213.353C207.599 166.941 202.934 171.606 202.934 177.36V257.625C202.934 263.379 207.599 268.044 213.353 268.044H293.611C299.365 268.044 304.029 263.379 304.029 257.625Z" fill="white"/>
</g>
<g filter="url(#filter1_d)">
<path d="M479 296.686V136.238C479 130.484 474.336 125.819 468.582 125.819L336.314 125.819C330.559 125.819 325.895 130.484 325.895 136.238V296.686C325.895 302.44 330.559 307.104 336.314 307.104H468.582C474.336 307.104 479 302.44 479 296.686Z" fill="white"/>
</g>
<path d="M242.053 217.223C242.053 219.599 241.525 221.783 240.469 223.775C239.413 225.743 237.949 227.303 236.077 228.455C234.229 229.607 232.141 230.183 229.813 230.183C227.485 230.183 225.385 229.607 223.513 228.455C221.665 227.303 220.213 225.743 219.157 223.775C218.125 221.783 217.609 219.599 217.609 217.223C217.609 214.847 218.125 212.675 219.157 210.707C220.213 208.715 221.665 207.143 223.513 205.991C225.385 204.839 227.485 204.263 229.813 204.263C232.141 204.263 234.229 204.839 236.077 205.991C237.949 207.143 239.413 208.715 240.469 210.707C241.525 212.675 242.053 214.847 242.053 217.223ZM237.373 217.223C237.373 215.615 237.049 214.163 236.401 212.867C235.753 211.547 234.853 210.503 233.701 209.735C232.549 208.967 231.253 208.583 229.813 208.583C228.349 208.583 227.041 208.967 225.889 209.735C224.761 210.479 223.873 211.511 223.225 212.831C222.601 214.151 222.289 215.615 222.289 217.223C222.289 218.831 222.601 220.295 223.225 221.615C223.873 222.935 224.761 223.979 225.889 224.747C227.041 225.491 228.349 225.863 229.813 225.863C231.253 225.863 232.549 225.479 233.701 224.711C234.853 223.943 235.753 222.911 236.401 221.615C237.049 220.295 237.373 218.831 237.373 217.223ZM263.826 205.847C264.57 206.231 264.942 206.843 264.942 207.683C264.942 208.187 264.762 208.679 264.402 209.159C264.018 209.663 263.526 209.915 262.926 209.915C262.518 209.915 262.11 209.807 261.702 209.591C260.526 209.039 259.254 208.763 257.886 208.763C256.206 208.763 254.742 209.123 253.494 209.843C252.246 210.539 251.286 211.535 250.614 212.831C249.942 214.103 249.606 215.567 249.606 217.223C249.606 220.055 250.362 222.203 251.874 223.667C253.41 225.131 255.414 225.863 257.886 225.863C259.35 225.863 260.622 225.587 261.702 225.035C262.134 224.843 262.518 224.747 262.854 224.747C263.478 224.747 264.006 225.011 264.438 225.539C264.798 225.995 264.978 226.487 264.978 227.015C264.978 227.399 264.882 227.747 264.69 228.059C264.498 228.371 264.222 228.611 263.862 228.779C261.99 229.715 259.998 230.183 257.886 230.183C255.534 230.183 253.374 229.691 251.406 228.707C249.438 227.699 247.866 226.223 246.69 224.279C245.514 222.335 244.926 219.983 244.926 217.223C244.926 214.775 245.478 212.579 246.582 210.635C247.71 208.691 249.258 207.179 251.226 206.099C253.194 204.995 255.414 204.443 257.886 204.443C260.022 204.443 262.002 204.911 263.826 205.847ZM288.52 226.295C288.832 226.487 289.072 226.739 289.24 227.051C289.432 227.363 289.528 227.687 289.528 228.023C289.528 228.455 289.384 228.851 289.096 229.211C288.736 229.643 288.184 229.859 287.44 229.859C286.864 229.859 286.336 229.727 285.856 229.463C284.128 228.479 283.264 226.475 283.264 223.451C283.264 222.587 282.976 221.903 282.4 221.399C281.848 220.895 281.044 220.643 279.988 220.643H273.256V227.627C273.256 228.275 273.076 228.803 272.716 229.211C272.38 229.619 271.924 229.823 271.348 229.823C270.652 229.823 270.04 229.619 269.512 229.211C269.008 228.779 268.756 228.251 268.756 227.627V206.819C268.756 206.195 268.96 205.679 269.368 205.271C269.8 204.839 270.328 204.623 270.952 204.623H281.32C282.568 204.623 283.744 204.959 284.848 205.631C285.952 206.303 286.828 207.227 287.476 208.403C288.148 209.579 288.484 210.899 288.484 212.363C288.484 213.563 288.16 214.739 287.512 215.891C286.864 217.019 286.024 217.919 284.992 218.591C286.504 219.647 287.332 221.063 287.476 222.839C287.548 223.223 287.584 223.595 287.584 223.955C287.68 224.699 287.776 225.239 287.872 225.575C287.968 225.887 288.184 226.127 288.52 226.295ZM281.14 216.935C281.572 216.935 281.992 216.731 282.4 216.323C282.808 215.915 283.144 215.375 283.408 214.703C283.672 214.007 283.804 213.263 283.804 212.471C283.804 211.799 283.672 211.187 283.408 210.635C283.144 210.059 282.808 209.603 282.4 209.267C281.992 208.931 281.572 208.763 281.14 208.763H273.256V216.935H281.14Z" fill="#023C89"/>
<g filter="url(#filter2_d)">
<path d="M125.2 411.382V348.87C125.2 343.116 120.535 338.451 114.781 338.451H52.2685C46.5144 338.451 41.8498 343.116 41.8498 348.87V411.382C41.8498 417.136 46.5144 421.8 52.2685 421.8H114.781C120.535 421.8 125.2 417.136 125.2 411.382Z" fill="white"/>
</g>
<path d="M98.2513 362.78L97.2465 354.734H83.1745C82.7784 354.734 82.3861 354.811 82.0201 354.963C81.654 355.114 81.3214 355.336 81.0414 355.616C80.7613 355.896 80.5392 356.229 80.3879 356.595C80.2365 356.961 80.1589 357.353 80.1594 357.749V386.026C80.1589 386.423 80.2365 386.815 80.3879 387.181C80.5392 387.547 80.7613 387.88 81.0414 388.16C81.3214 388.44 81.654 388.662 82.0201 388.813C82.3861 388.964 82.7784 389.042 83.1745 389.042H103.277C103.673 389.042 104.065 388.964 104.431 388.813C104.797 388.662 105.13 388.44 105.41 388.16C105.69 387.88 105.912 387.547 106.064 387.181C106.215 386.815 106.292 386.423 106.292 386.026V363.781L98.2513 362.78Z" fill="#D9F5FF"/>
<path d="M97.2485 354.733H93.2257V389.042H103.277C103.673 389.042 104.065 388.965 104.431 388.813C104.797 388.662 105.13 388.44 105.41 388.16C105.69 387.88 105.912 387.547 106.064 387.181C106.215 386.815 106.293 386.423 106.292 386.027V363.78L98.2465 362.775L97.2485 354.733Z" fill="#87E4F9"/>
<path d="M106.293 363.78H99.2582C98.7247 363.78 98.2131 363.568 97.8359 363.191C97.4587 362.814 97.2468 362.302 97.2468 361.769V354.733C97.3787 354.732 97.5095 354.758 97.6308 354.81C97.7521 354.862 97.8611 354.938 97.9508 355.035L105.996 363.081C106.092 363.17 106.167 363.279 106.218 363.399C106.269 363.519 106.295 363.649 106.293 363.78Z" fill="#18C1E8"/>
<path d="M92.7851 379.001V384.246H98.0339C98.7589 384.246 99.3461 383.856 99.3461 383.372V379.001H92.7851Z" fill="#18C1E8"/>
<path d="M99.3456 377.254V374.631C99.3457 374.516 99.3232 374.402 99.2793 374.296C99.2354 374.19 99.171 374.094 99.0898 374.012C99.0085 373.931 98.9121 373.867 98.8059 373.823C98.6998 373.779 98.586 373.756 98.4711 373.757H87.9823C87.8674 373.756 87.7536 373.779 87.6475 373.823C87.5413 373.867 87.4449 373.931 87.3636 374.012C87.2824 374.094 87.218 374.19 87.1741 374.296C87.1302 374.402 87.1077 374.516 87.1078 374.631V377.254H99.3456Z" fill="#87E4F9"/>
<path d="M93.2269 379.001H87.1075V383.372C87.1074 383.487 87.13 383.601 87.1739 383.707C87.2178 383.813 87.2822 383.909 87.3634 383.991C87.4446 384.072 87.5411 384.136 87.6472 384.18C87.7534 384.224 87.8671 384.247 87.982 384.246H93.2269V379.001Z" fill="#87E4F9"/>
<path d="M98.4716 373.757H93.2267V377.254H99.346V374.631C99.3462 374.516 99.3236 374.402 99.2797 374.296C99.2358 374.19 99.1714 374.094 99.0902 374.012C99.009 373.931 98.9125 373.867 98.8064 373.823C98.7002 373.779 98.5865 373.756 98.4716 373.757Z" fill="#18C1E8"/>
<path d="M99.1326 369.29H87.3229C87.0672 369.298 86.8246 369.405 86.6466 369.589C86.4685 369.773 86.369 370.018 86.369 370.274C86.369 370.53 86.4685 370.776 86.6466 370.959C86.8246 371.143 87.0672 371.25 87.3229 371.258H99.1326C99.2644 371.262 99.3957 371.24 99.5187 371.192C99.6417 371.145 99.7538 371.073 99.8486 370.981C99.9433 370.889 100.019 370.779 100.07 370.658C100.121 370.537 100.148 370.406 100.148 370.274C100.148 370.142 100.121 370.012 100.07 369.89C100.019 369.769 99.9433 369.659 99.8486 369.567C99.7538 369.475 99.6417 369.404 99.5187 369.356C99.3957 369.308 99.2644 369.286 99.1326 369.29Z" fill="#87E4F9"/>
<path d="M95.1957 365.354H87.3226C87.0669 365.361 86.8243 365.469 86.6463 365.652C86.4682 365.836 86.3687 366.082 86.3687 366.338C86.3687 366.593 86.4682 366.839 86.6463 367.023C86.8243 367.207 87.0669 367.314 87.3226 367.322H95.1957C95.4514 367.314 95.6939 367.207 95.872 367.023C96.05 366.839 96.1496 366.593 96.1496 366.338C96.1496 366.082 96.05 365.836 95.872 365.652C95.6939 365.469 95.4514 365.361 95.1957 365.354Z" fill="#87E4F9"/>
<path d="M93.2279 365.354H95.1962C95.4519 365.361 95.6944 365.469 95.8725 365.652C96.0505 365.836 96.1501 366.082 96.1501 366.338C96.1501 366.593 96.0505 366.839 95.8725 367.023C95.6944 367.207 95.4519 367.314 95.1962 367.322H93.2279V365.354Z" fill="#18C1E8"/>
<path d="M93.2279 369.29H99.1328C99.3884 369.298 99.631 369.405 99.809 369.589C99.9871 369.773 100.087 370.018 100.087 370.274C100.087 370.53 99.9871 370.776 99.809 370.959C99.631 371.143 99.3884 371.25 99.1328 371.258H93.2279V369.29Z" fill="#18C1E8"/>
<path d="M84.7561 371.94H69.0415C68.6911 371.94 68.3551 372.08 68.1072 372.327C67.8594 372.575 67.72 372.911 67.7197 373.261V379.295C67.72 379.646 67.8594 379.982 68.1072 380.229C68.3551 380.477 68.6911 380.616 69.0415 380.616H84.7561C85.1064 380.616 85.4424 380.477 85.6901 380.229C85.9378 379.982 86.0769 379.646 86.0769 379.295V373.261C86.0769 372.911 85.9378 372.575 85.6901 372.327C85.4424 372.08 85.1064 371.94 84.7561 371.94Z" fill="#70757F"/>
<path d="M84.7568 371.94H73.5582V380.621H84.7568C85.1071 380.621 85.443 380.482 85.6907 380.234C85.9384 379.986 86.0776 379.65 86.0776 379.3V373.266C86.0776 372.916 85.9384 372.58 85.6907 372.332C85.443 372.084 85.1071 371.945 84.7568 371.945V371.94Z" fill="#07171D"/>
<path d="M86.0784 367.579V374.583H62.3585C62.1847 374.584 62.0125 374.55 61.8518 374.484C61.6911 374.417 61.5451 374.32 61.422 374.198C61.299 374.075 61.2013 373.929 61.1347 373.769C61.0681 373.608 61.0338 373.436 61.0338 373.262V370.619C61.0338 369.462 61.4933 368.353 62.3111 367.535C63.1289 366.717 64.2381 366.258 65.3947 366.258H84.7566C84.8088 366.257 84.861 366.261 84.9127 366.267L85.3303 366.388C85.5538 366.496 85.7422 366.665 85.874 366.876C86.0058 367.086 86.0757 367.329 86.0755 367.578L86.0784 367.579Z" fill="#D6E0E8"/>
<path d="M85.3334 366.388L84.9158 366.267C84.864 366.261 84.8118 366.257 84.7596 366.258H73.5582V374.584H86.0757V367.579C86.0758 367.33 86.006 367.087 85.8742 366.877C85.7424 366.666 85.554 366.497 85.3305 366.389L85.3334 366.388Z" fill="#C3CFD8"/>
<path d="M84.913 366.266C84.8613 366.26 84.8091 366.256 84.7569 366.257H75.4145L61.9948 362.356C61.8239 362.311 61.6637 362.233 61.5235 362.126C61.3833 362.019 61.2661 361.885 61.1787 361.731C61.0912 361.578 61.0354 361.409 61.0145 361.234C60.9936 361.058 61.008 360.881 61.0569 360.711C61.1059 360.542 61.1882 360.384 61.2993 360.246C61.4103 360.109 61.5477 359.996 61.7033 359.912C61.8589 359.829 62.0297 359.778 62.2054 359.762C62.3812 359.746 62.5584 359.765 62.7265 359.819L84.913 366.266Z" fill="#A0ABB5"/>
<path d="M73.5582 362.967V365.719L75.4144 366.258H84.7577C84.8099 366.257 84.8621 366.261 84.9138 366.267L73.5582 362.967Z" fill="#70757F"/>
<path d="M86.0784 377.978H65.5355C64.9447 377.977 64.3595 378.093 63.8134 378.318C63.2673 378.543 62.771 378.874 62.3528 379.291C61.9347 379.709 61.603 380.204 61.3766 380.75C61.1503 381.296 61.0338 381.881 61.0338 382.471V395.384C61.0338 395.735 61.173 396.071 61.4207 396.318C61.6684 396.566 62.0043 396.705 62.3546 396.705H84.7576C85.1079 396.705 85.4438 396.566 85.6915 396.318C85.9392 396.071 86.0784 395.735 86.0784 395.384V377.978Z" fill="#C3CFD8"/>
<path d="M73.5582 377.978V396.701H84.7568C85.1062 396.701 85.4413 396.562 85.6885 396.315C85.9357 396.068 86.0749 395.733 86.0757 395.383V377.978H73.5582Z" fill="#A0ABB5"/>
<path d="M86.0784 394.06H61.0338V403.421C61.0338 403.772 61.173 404.108 61.4207 404.355C61.6684 404.603 62.0043 404.742 62.3546 404.742H84.7566C85.1069 404.742 85.4429 404.603 85.6906 404.355C85.9383 404.108 86.0774 403.772 86.0774 403.421L86.0784 394.06Z" fill="#7C828C"/>
<path d="M73.5582 394.06V404.742H84.7568C85.1071 404.742 85.443 404.603 85.6907 404.355C85.9384 404.108 86.0776 403.772 86.0776 403.421V394.06H73.5582Z" fill="#70757F"/>
<path d="M75.504 400.721H71.2063C70.8559 400.721 70.5198 400.582 70.272 400.334C70.0242 400.087 69.885 399.751 69.885 399.4C69.885 399.05 70.0242 398.714 70.272 398.466C70.5198 398.218 70.8559 398.079 71.2063 398.079H75.504C75.8544 398.079 76.1905 398.218 76.4383 398.466C76.6861 398.714 76.8253 399.05 76.8253 399.4C76.8253 399.751 76.6861 400.087 76.4383 400.334C76.1905 400.582 75.8544 400.721 75.504 400.721Z" fill="#70757F"/>
<path d="M75.5035 398.08H73.5582V400.722H75.5035C75.8539 400.722 76.19 400.583 76.4378 400.335C76.6855 400.088 76.8247 399.752 76.8247 399.401C76.8247 399.051 76.6855 398.715 76.4378 398.467C76.19 398.219 75.8539 398.08 75.5035 398.08Z" fill="#5B616B"/>
<path d="M75.504 388.661H71.2063C70.8559 388.661 70.5198 388.522 70.272 388.274C70.0242 388.026 69.885 387.69 69.885 387.34C69.885 386.989 70.0242 386.653 70.272 386.405C70.5198 386.157 70.8559 386.018 71.2063 386.018H75.504C75.8544 386.018 76.1905 386.157 76.4383 386.405C76.6861 386.653 76.8253 386.989 76.8253 387.34C76.8253 387.69 76.6861 388.026 76.4383 388.274C76.1905 388.522 75.8544 388.661 75.504 388.661Z" fill="#A0ABB5"/>
<path d="M75.5035 386.019H73.5582V388.662H75.5035C75.8539 388.662 76.19 388.522 76.4378 388.275C76.6855 388.027 76.8247 387.691 76.8247 387.34C76.8247 386.99 76.6855 386.654 76.4378 386.406C76.19 386.158 75.8539 386.019 75.5035 386.019Z" fill="#70757F"/>
<g filter="url(#filter3_d)">
<path d="M89.7618 248.556V186.044C89.7618 183.281 88.6641 180.631 86.7102 178.677C84.7562 176.723 82.1061 175.625 79.3429 175.625H16.8301C14.0668 175.625 11.4167 176.723 9.46277 178.677C7.50884 180.631 6.41113 183.281 6.41113 186.044V248.556C6.41113 251.319 7.50884 253.969 9.46277 255.923C11.4167 257.877 14.0668 258.975 16.8301 258.975H79.3429C82.1061 258.975 84.7562 257.877 86.7102 255.923C88.6641 253.969 89.7618 251.319 89.7618 248.556Z" fill="white"/>
</g>
<path d="M67.4917 205.094L57.2356 202.164L54.3009 191.908H33.7934C32.6277 191.908 31.5097 192.371 30.6854 193.195C29.8611 194.019 29.3981 195.137 29.3981 196.303V237.522C29.3981 238.688 29.8611 239.806 30.6854 240.63C31.5097 241.454 32.6277 241.917 33.7934 241.917H63.0964C64.2621 241.917 65.3801 241.454 66.2043 240.63C67.0286 239.806 67.4917 238.688 67.4917 237.522V205.094Z" fill="#4086F4"/>
<path d="M67.4911 205.094V237.522C67.4911 238.688 67.028 239.806 66.2037 240.63C65.3794 241.454 64.2614 241.917 63.0957 241.917H48.4442V191.908H54.305L57.2349 202.164L67.4911 205.094Z" fill="#4175DF"/>
<path d="M67.4912 205.094H57.2351C56.4587 205.092 55.7148 204.782 55.1658 204.233C54.6169 203.684 54.3074 202.94 54.3052 202.164V191.908C54.4974 191.905 54.688 191.943 54.8648 192.019C55.0415 192.094 55.2003 192.206 55.331 192.347L67.0516 204.072C67.1921 204.202 67.3038 204.36 67.3795 204.536C67.4552 204.712 67.4933 204.902 67.4912 205.094Z" fill="#80AEF8"/>
<path d="M57.235 215.447H39.6536C39.4581 215.452 39.2635 215.418 39.0814 215.346C38.8993 215.275 38.7333 215.168 38.5932 215.031C38.4532 214.895 38.3419 214.732 38.2659 214.551C38.1899 214.371 38.1507 214.178 38.1507 213.982C38.1507 213.786 38.1899 213.593 38.2659 213.413C38.3419 213.232 38.4532 213.069 38.5932 212.933C38.7333 212.796 38.8993 212.689 39.0814 212.618C39.2635 212.546 39.4581 212.512 39.6536 212.517H57.235C57.4305 212.512 57.6251 212.546 57.8072 212.618C57.9893 212.689 58.1553 212.796 58.2953 212.933C58.4354 213.069 58.5467 213.232 58.6227 213.413C58.6987 213.593 58.7379 213.786 58.7379 213.982C58.7379 214.178 58.6987 214.371 58.6227 214.551C58.5467 214.732 58.4354 214.895 58.2953 215.031C58.1553 215.168 57.9893 215.275 57.8072 215.346C57.6251 215.418 57.4305 215.452 57.235 215.447Z" fill="#FFF5F5"/>
<path d="M57.235 221.307H39.6536C39.4581 221.312 39.2635 221.278 39.0814 221.207C38.8993 221.135 38.7333 221.028 38.5932 220.892C38.4532 220.755 38.3419 220.592 38.2659 220.412C38.1899 220.232 38.1507 220.038 38.1507 219.842C38.1507 219.647 38.1899 219.453 38.2659 219.273C38.3419 219.093 38.4532 218.93 38.5932 218.793C38.7333 218.656 38.8993 218.549 39.0814 218.478C39.2635 218.407 39.4581 218.372 39.6536 218.377H57.235C57.4305 218.372 57.6251 218.407 57.8072 218.478C57.9893 218.549 58.1553 218.656 58.2953 218.793C58.4354 218.93 58.5467 219.093 58.6227 219.273C58.6987 219.453 58.7379 219.647 58.7379 219.842C58.7379 220.038 58.6987 220.232 58.6227 220.412C58.5467 220.592 58.4354 220.755 58.2953 220.892C58.1553 221.028 57.9893 221.135 57.8072 221.207C57.6251 221.278 57.4305 221.312 57.235 221.307Z" fill="#FFF5F5"/>
<path d="M57.235 227.168H39.6536C39.4581 227.173 39.2635 227.139 39.0814 227.068C38.8993 226.996 38.7333 226.889 38.5932 226.753C38.4532 226.616 38.3419 226.453 38.2659 226.273C38.1899 226.092 38.1507 225.899 38.1507 225.703C38.1507 225.508 38.1899 225.314 38.2659 225.134C38.3419 224.954 38.4532 224.79 38.5932 224.654C38.7333 224.517 38.8993 224.41 39.0814 224.339C39.2635 224.267 39.4581 224.233 39.6536 224.238H57.235C57.4305 224.233 57.6251 224.267 57.8072 224.339C57.9893 224.41 58.1553 224.517 58.2953 224.654C58.4354 224.79 58.5467 224.954 58.6227 225.134C58.6987 225.314 58.7379 225.508 58.7379 225.703C58.7379 225.899 58.6987 226.092 58.6227 226.273C58.5467 226.453 58.4354 226.616 58.2953 226.753C58.1553 226.889 57.9893 226.996 57.8072 227.068C57.6251 227.139 57.4305 227.173 57.235 227.168Z" fill="#FFF5F5"/>
<path d="M51.3742 233.029H39.6536C39.4581 233.034 39.2635 233 39.0814 232.928C38.8993 232.857 38.7333 232.75 38.5932 232.613C38.4532 232.477 38.3419 232.314 38.2659 232.134C38.1899 231.953 38.1507 231.76 38.1507 231.564C38.1507 231.368 38.1899 231.175 38.2659 230.995C38.3419 230.814 38.4532 230.651 38.5932 230.515C38.7333 230.378 38.8993 230.271 39.0814 230.2C39.2635 230.128 39.4581 230.094 39.6536 230.099H51.3742C51.5697 230.094 51.7643 230.128 51.9464 230.2C52.1285 230.271 52.2945 230.378 52.4345 230.515C52.5746 230.651 52.6859 230.814 52.7619 230.995C52.8379 231.175 52.8771 231.368 52.8771 231.564C52.8771 231.76 52.8379 231.953 52.7619 232.134C52.6859 232.314 52.5746 232.477 52.4345 232.613C52.2945 232.75 52.1285 232.857 51.9464 232.928C51.7643 233 51.5697 233.034 51.3742 233.029Z" fill="#FFF5F5"/>
<path d="M48.4445 233.029H51.3744C51.57 233.034 51.7645 232.999 51.9466 232.928C52.1287 232.857 52.2947 232.749 52.4348 232.613C52.5749 232.476 52.6862 232.313 52.7622 232.133C52.8382 231.953 52.8773 231.759 52.8773 231.564C52.8773 231.368 52.8382 231.174 52.7622 230.994C52.6862 230.814 52.5749 230.651 52.4348 230.514C52.2947 230.378 52.1287 230.271 51.9466 230.199C51.7645 230.128 51.57 230.094 51.3744 230.099H48.4445V233.029Z" fill="#E3E7EA"/>
<path d="M48.4445 227.168H57.2352C57.4308 227.173 57.6253 227.139 57.8074 227.067C57.9895 226.996 58.1555 226.889 58.2956 226.752C58.4356 226.616 58.5469 226.452 58.6229 226.272C58.6989 226.092 58.7381 225.898 58.7381 225.703C58.7381 225.507 58.6989 225.314 58.6229 225.133C58.5469 224.953 58.4356 224.79 58.2956 224.653C58.1555 224.517 57.9895 224.41 57.8074 224.338C57.6253 224.267 57.4308 224.233 57.2352 224.238H48.4445V227.168Z" fill="#E3E7EA"/>
<path d="M48.4445 221.308H57.2352C57.4308 221.313 57.6253 221.279 57.8074 221.207C57.9895 221.136 58.1555 221.029 58.2956 220.892C58.4356 220.756 58.5469 220.593 58.6229 220.412C58.6989 220.232 58.7381 220.038 58.7381 219.843C58.7381 219.647 58.6989 219.454 58.6229 219.273C58.5469 219.093 58.4356 218.93 58.2956 218.794C58.1555 218.657 57.9895 218.55 57.8074 218.478C57.6253 218.407 57.4308 218.373 57.2352 218.378H48.4445V221.308Z" fill="#E3E7EA"/>
<path d="M48.4447 215.447H57.2354C57.4309 215.452 57.6255 215.418 57.8076 215.346C57.9897 215.275 58.1556 215.168 58.2957 215.031C58.4358 214.895 58.5471 214.732 58.6231 214.551C58.6991 214.371 58.7383 214.178 58.7383 213.982C58.7383 213.786 58.6991 213.593 58.6231 213.413C58.5471 213.232 58.4358 213.069 58.2957 212.933C58.1556 212.796 57.9897 212.689 57.8076 212.618C57.6255 212.546 57.4309 212.512 57.2354 212.517H48.4447V215.447Z" fill="#E3E7EA"/>
<g filter="url(#filter4_d)">
<path d="M125.2 76.1515V13.6394C125.2 7.8853 120.535 3.2207 114.781 3.2207L52.2685 3.2207C46.5144 3.2207 41.8498 7.8853 41.8498 13.6394V76.1515C41.8498 81.9055 46.5144 86.5701 52.2685 86.5701H114.781C120.535 86.5701 125.2 81.9055 125.2 76.1515Z" fill="white"/>
</g>
<path d="M102.93 32.6895L92.6743 29.7595L89.7396 19.5034H69.2322C68.0664 19.5034 66.9485 19.9665 66.1242 20.7908C65.2999 21.6151 64.8368 22.733 64.8368 23.8988V65.1177C64.8368 66.2834 65.2999 67.4014 66.1242 68.2257C66.9485 69.05 68.0664 69.5131 69.2322 69.5131H98.5351C99.7008 69.5131 100.819 69.05 101.643 68.2257C102.467 67.4014 102.93 66.2834 102.93 65.1177V32.6895Z" fill="#FABE2C"/>
<path d="M89.7439 19.5034H83.8831V69.5131H98.5375C99.7032 69.5131 100.821 69.05 101.645 68.2257C102.47 67.4014 102.933 66.2834 102.933 65.1177V32.6895L92.6767 29.7595L89.7439 19.5034Z" fill="#FF9F00"/>
<path d="M102.93 32.6896H92.674C91.8976 32.6873 91.1537 32.3779 90.6047 31.8289C90.0557 31.2799 89.7463 30.536 89.744 29.7597V19.5035C89.9363 19.5009 90.1269 19.5387 90.3036 19.6145C90.4803 19.6902 90.6392 19.8022 90.7699 19.9432L102.49 31.6676C102.631 31.7979 102.743 31.9561 102.818 32.1321C102.894 32.3081 102.932 32.498 102.93 32.6896Z" fill="#FDD929"/>
<path d="M87.528 40.012L75.1158 40.0034C74.5048 40.0034 74.0096 39.6653 74.0096 39.2477V31.6859C74.0096 31.2683 74.5038 30.9302 75.1158 30.9302L87.528 30.9388C88.1391 30.9388 88.5174 31.1821 88.5174 31.5997V39.1615C88.5085 39.2824 88.4759 39.4004 88.4213 39.5087C88.3668 39.6169 88.2914 39.7133 88.1994 39.7924C88.1075 39.8714 88.0008 39.9315 87.8856 39.9692C87.7704 40.0069 87.6488 40.0214 87.528 40.012ZM76.2259 37.7353H87.2837V33.1982H76.2211L76.2259 37.7353Z" fill="#FFF5F5"/>
<path d="M87.6245 30.9302H83.8775V33.1982H86.6753V37.7353H83.8775V40.0034H87.6245C87.85 40.0262 88.0755 39.9599 88.2528 39.8187C88.4302 39.6775 88.5453 39.4726 88.5736 39.2477V31.6859C88.5453 31.461 88.4302 31.2561 88.2528 31.1149C88.0755 30.9737 87.85 30.9074 87.6245 30.9302Z" fill="#E3E7EA"/>
<path d="M92.6739 45.094H75.0925C74.897 45.099 74.7024 45.0648 74.5203 44.9934C74.3382 44.922 74.1722 44.8149 74.0321 44.6784C73.8921 44.5419 73.7808 44.3787 73.7048 44.1984C73.6288 44.0182 73.5896 43.8246 73.5896 43.629C73.5896 43.4334 73.6288 43.2398 73.7048 43.0596C73.7808 42.8793 73.8921 42.7162 74.0321 42.5796C74.1722 42.4431 74.3382 42.336 74.5203 42.2646C74.7024 42.1932 74.897 42.1591 75.0925 42.1641H92.6739C92.8694 42.1591 93.064 42.1932 93.2461 42.2646C93.4282 42.336 93.5942 42.4431 93.7342 42.5796C93.8743 42.7162 93.9856 42.8793 94.0616 43.0596C94.1376 43.2398 94.1768 43.4334 94.1768 43.629C94.1768 43.8246 94.1376 44.0182 94.0616 44.1984C93.9856 44.3787 93.8743 44.5419 93.7342 44.6784C93.5942 44.8149 93.4282 44.922 93.2461 44.9934C93.064 45.0648 92.8694 45.099 92.6739 45.094Z" fill="#FFF5F5"/>
<path d="M92.6737 50.7595H75.0923C74.8968 50.7645 74.7022 50.7303 74.5201 50.6589C74.338 50.5876 74.172 50.4805 74.032 50.3439C73.8919 50.2074 73.7806 50.0442 73.7046 49.864C73.6286 49.6837 73.5894 49.4901 73.5894 49.2945C73.5894 49.0989 73.6286 48.9053 73.7046 48.7251C73.7806 48.5449 73.8919 48.3817 74.032 48.2452C74.172 48.1086 74.338 48.0015 74.5201 47.9302C74.7022 47.8588 74.8968 47.8246 75.0923 47.8296H92.6737C92.8693 47.8246 93.0638 47.8588 93.2459 47.9302C93.428 48.0015 93.594 48.1086 93.7341 48.2452C93.8741 48.3817 93.9855 48.5449 94.0615 48.7251C94.1375 48.9053 94.1766 49.0989 94.1766 49.2945C94.1766 49.4901 94.1375 49.6837 94.0615 49.864C93.9855 50.0442 93.8741 50.2074 93.7341 50.3439C93.594 50.4805 93.428 50.5876 93.2459 50.6589C93.0638 50.7303 92.8693 50.7645 92.6737 50.7595Z" fill="#FFF5F5"/>
<path d="M92.6737 56.4245H75.0923C74.8968 56.4295 74.7022 56.3953 74.5201 56.324C74.338 56.2526 74.172 56.1455 74.032 56.009C73.8919 55.8724 73.7806 55.7092 73.7046 55.529C73.6286 55.3488 73.5894 55.1552 73.5894 54.9596C73.5894 54.764 73.6286 54.5704 73.7046 54.3901C73.7806 54.2099 73.8919 54.0467 74.032 53.9102C74.172 53.7737 74.338 53.6666 74.5201 53.5952C74.7022 53.5238 74.8968 53.4896 75.0923 53.4946H92.6737C92.8693 53.4896 93.0638 53.5238 93.2459 53.5952C93.428 53.6666 93.594 53.7737 93.7341 53.9102C93.8741 54.0467 93.9855 54.2099 94.0615 54.3901C94.1375 54.5704 94.1766 54.764 94.1766 54.9596C94.1766 55.1552 94.1375 55.3488 94.0615 55.529C93.9855 55.7092 93.8741 55.8724 93.7341 56.009C93.594 56.1455 93.428 56.2526 93.2459 56.324C93.0638 56.3953 92.8693 56.4295 92.6737 56.4245Z" fill="#FFF5F5"/>
<path d="M86.8129 62.09H75.0923C74.8968 62.095 74.7022 62.0609 74.5201 61.9895C74.338 61.9181 74.172 61.811 74.032 61.6745C73.8919 61.538 73.7806 61.3748 73.7046 61.1945C73.6286 61.0143 73.5894 60.8207 73.5894 60.6251C73.5894 60.4295 73.6286 60.2359 73.7046 60.0557C73.7806 59.8754 73.8919 59.7123 74.032 59.5757C74.172 59.4392 74.338 59.3321 74.5201 59.2607C74.7022 59.1894 74.8968 59.1551 75.0923 59.1601H86.8129C87.0085 59.1551 87.203 59.1894 87.3851 59.2607C87.5673 59.3321 87.7332 59.4392 87.8733 59.5757C88.0134 59.7123 88.1247 59.8754 88.2007 60.0557C88.2767 60.2359 88.3158 60.4295 88.3158 60.6251C88.3158 60.8207 88.2767 61.0143 88.2007 61.1945C88.1247 61.3748 88.0134 61.538 87.8733 61.6745C87.7332 61.811 87.5673 61.9181 87.3851 61.9895C87.203 62.0609 87.0085 62.095 86.8129 62.09Z" fill="#FFF5F5"/>
<path d="M83.8834 62.09H86.8133C87.0089 62.095 87.2034 62.0609 87.3855 61.9895C87.5676 61.9181 87.7336 61.811 87.8737 61.6745C88.0138 61.538 88.1251 61.3748 88.2011 61.1945C88.2771 61.0143 88.3162 60.8207 88.3162 60.6251C88.3162 60.4295 88.2771 60.2359 88.2011 60.0557C88.1251 59.8754 88.0138 59.7123 87.8737 59.5757C87.7336 59.4392 87.5676 59.3321 87.3855 59.2607C87.2034 59.1894 87.0089 59.1551 86.8133 59.1601H83.8834V62.09Z" fill="#E3E7EA"/>
<path d="M83.8834 56.425H92.6741C92.8697 56.43 93.0642 56.3958 93.2463 56.3245C93.4284 56.2531 93.5944 56.146 93.7345 56.0095C93.8745 55.8729 93.9858 55.7097 94.0618 55.5295C94.1378 55.3493 94.177 55.1557 94.177 54.9601C94.177 54.7645 94.1378 54.5708 94.0618 54.3906C93.9858 54.2104 93.8745 54.0472 93.7345 53.9107C93.5944 53.7742 93.4284 53.6671 93.2463 53.5957C93.0642 53.5243 92.8697 53.4901 92.6741 53.4951H83.8834V56.425Z" fill="#E3E7EA"/>
<path d="M83.8834 50.7595H92.6741C92.8697 50.7645 93.0642 50.7303 93.2463 50.6589C93.4284 50.5876 93.5944 50.4805 93.7345 50.3439C93.8745 50.2074 93.9858 50.0442 94.0618 49.864C94.1378 49.6837 94.177 49.4901 94.177 49.2945C94.177 49.0989 94.1378 48.9053 94.0618 48.7251C93.9858 48.5449 93.8745 48.3817 93.7345 48.2452C93.5944 48.1086 93.4284 48.0015 93.2463 47.9302C93.0642 47.8588 92.8697 47.8246 92.6741 47.8296H83.8834V50.7595Z" fill="#E3E7EA"/>
<path d="M83.883 45.094H92.6737C92.8692 45.099 93.0638 45.0648 93.2459 44.9934C93.428 44.922 93.594 44.8149 93.734 44.6784C93.8741 44.5419 93.9854 44.3787 94.0614 44.1984C94.1374 44.0182 94.1766 43.8246 94.1766 43.629C94.1766 43.4334 94.1374 43.2398 94.0614 43.0596C93.9854 42.8793 93.8741 42.7162 93.734 42.5796C93.594 42.4431 93.428 42.336 93.2459 42.2646C93.0638 42.1932 92.8692 42.1591 92.6737 42.1641H83.883V45.094Z" fill="#E3E7EA"/>
<path d="M449.955 186.153L423.888 178.705L416.441 152.638H364.307C361.344 152.638 358.502 153.815 356.407 155.91C354.312 158.005 353.135 160.847 353.135 163.81V268.574C353.135 271.537 354.312 274.379 356.407 276.474C358.502 278.569 361.344 279.746 364.307 279.746H438.784C441.747 279.746 444.589 278.569 446.684 276.474C448.779 274.379 449.956 271.537 449.956 268.574L449.955 186.153Z" fill="#734BBD"/>
<path d="M371.902 219.877C373.937 219.877 375.587 218.227 375.587 216.192C375.587 214.157 373.937 212.507 371.902 212.507C369.867 212.507 368.217 214.157 368.217 216.192C368.217 218.227 369.867 219.877 371.902 219.877Z" fill="#FFF5F5"/>
<path d="M371.902 234.614C373.937 234.614 375.587 232.965 375.587 230.93C375.587 228.895 373.937 227.245 371.902 227.245C369.867 227.245 368.217 228.895 368.217 230.93C368.217 232.965 369.867 234.614 371.902 234.614Z" fill="#FFF5F5"/>
<path d="M371.902 249.351C373.937 249.351 375.587 247.701 375.587 245.666C375.587 243.631 373.937 241.982 371.902 241.982C369.867 241.982 368.217 243.631 368.217 245.666C368.217 247.701 369.867 249.351 371.902 249.351Z" fill="#FFF5F5"/>
<path d="M449.955 186.153V268.574C449.955 271.537 448.778 274.379 446.683 276.474C444.588 278.569 441.746 279.746 438.783 279.746H401.545V152.638H416.441L423.888 178.706L449.955 186.153Z" fill="#5F45A9"/>
<path d="M423.887 219.916H386.649C385.661 219.916 384.714 219.523 384.016 218.825C383.317 218.127 382.925 217.179 382.925 216.192C382.925 215.204 383.317 214.257 384.016 213.558C384.714 212.86 385.661 212.468 386.649 212.468H423.887C424.875 212.468 425.822 212.86 426.52 213.558C427.219 214.257 427.611 215.204 427.611 216.192C427.611 217.179 427.219 218.127 426.52 218.825C425.822 219.523 424.875 219.916 423.887 219.916Z" fill="#FFF5F5"/>
<path d="M423.887 234.812H386.649C385.661 234.812 384.714 234.419 384.016 233.721C383.317 233.023 382.925 232.075 382.925 231.088C382.925 230.1 383.317 229.153 384.016 228.454C384.714 227.756 385.661 227.364 386.649 227.364H423.887C424.875 227.364 425.822 227.756 426.52 228.454C427.219 229.153 427.611 230.1 427.611 231.088C427.611 232.075 427.219 233.023 426.52 233.721C425.822 234.419 424.875 234.812 423.887 234.812Z" fill="#FFF5F5"/>
<path d="M423.887 249.707H386.649C385.661 249.707 384.714 249.315 384.016 248.616C383.317 247.918 382.925 246.971 382.925 245.983C382.925 244.996 383.317 244.048 384.016 243.35C384.714 242.652 385.661 242.259 386.649 242.259H423.887C424.875 242.259 425.822 242.652 426.52 243.35C427.219 244.048 427.611 244.996 427.611 245.983C427.611 246.971 427.219 247.918 426.52 248.616C425.822 249.315 424.875 249.707 423.887 249.707Z" fill="#FFF5F5"/>
<path d="M401.545 249.706H423.888C424.876 249.706 425.823 249.314 426.522 248.615C427.22 247.917 427.612 246.97 427.612 245.982C427.612 244.995 427.22 244.047 426.522 243.349C425.823 242.651 424.876 242.258 423.888 242.258H401.545V249.706Z" fill="#E3E7EA"/>
<path d="M401.545 234.812H423.888C424.876 234.812 425.823 234.419 426.522 233.721C427.22 233.023 427.612 232.075 427.612 231.088C427.612 230.1 427.22 229.153 426.522 228.454C425.823 227.756 424.876 227.364 423.888 227.364H401.545V234.812Z" fill="#E3E7EA"/>
<path d="M401.545 219.916H423.888C424.876 219.916 425.823 219.523 426.522 218.825C427.22 218.127 427.612 217.179 427.612 216.192C427.612 215.204 427.22 214.257 426.522 213.558C425.823 212.86 424.876 212.468 423.888 212.468H401.545V219.916Z" fill="#E3E7EA"/>
<path d="M449.955 186.152H423.888C421.915 186.146 420.024 185.36 418.629 183.965C417.233 182.569 416.447 180.679 416.44 178.705V152.638C416.929 152.632 417.413 152.728 417.862 152.92C418.311 153.113 418.714 153.398 419.047 153.756L448.834 183.543C449.193 183.875 449.479 184.279 449.672 184.729C449.865 185.178 449.961 185.663 449.955 186.152Z" fill="#9B7ED0"/>
<path d="M384.51 178.878C385.05 178.878 385.49 179.038 385.83 179.358C386.17 179.678 386.34 180.098 386.34 180.618C386.34 181.138 386.17 181.558 385.83 181.878C385.49 182.178 385.05 182.328 384.51 182.328H379.8V198.048C379.8 198.568 379.61 199.008 379.23 199.368C378.85 199.708 378.38 199.878 377.82 199.878C377.26 199.878 376.8 199.708 376.44 199.368C376.08 199.008 375.9 198.568 375.9 198.048V182.328H371.19C370.65 182.328 370.21 182.168 369.87 181.848C369.53 181.528 369.36 181.108 369.36 180.588C369.36 180.088 369.53 179.678 369.87 179.358C370.23 179.038 370.67 178.878 371.19 178.878H384.51Z" fill="#FFF5F5"/>
<defs>
<filter id="filter0_d" x="196.934" y="163.941" width="113.095" height="113.103" filterUnits="userSpaceOnUse" color-interpolation-filters="sRGB">
<feFlood flood-opacity="0" result="BackgroundImageFix"/>
<feColorMatrix in="SourceAlpha" type="matrix" values="0 0 0 0 0 0 0 0 0 0 0 0 0 0 0 0 0 0 127 0" result="hardAlpha"/>
<feOffset dy="3"/>
<feGaussianBlur stdDeviation="3"/>
<feColorMatrix type="matrix" values="0 0 0 0 0 0 0 0 0 0 0 0 0 0 0 0 0 0 0.161 0"/>
<feBlend mode="normal" in2="BackgroundImageFix" result="effect1_dropShadow"/>
<feBlend mode="normal" in="SourceGraphic" in2="effect1_dropShadow" result="shape"/>
</filter>
<filter id="filter1_d" x="310.895" y="113.819" width="183.106" height="211.285" filterUnits="userSpaceOnUse" color-interpolation-filters="sRGB">
<feFlood flood-opacity="0" result="BackgroundImageFix"/>
<feColorMatrix in="SourceAlpha" type="matrix" values="0 0 0 0 0 0 0 0 0 0 0 0 0 0 0 0 0 0 127 0" result="hardAlpha"/>
<feOffset dy="3"/>
<feGaussianBlur stdDeviation="7.5"/>
<feColorMatrix type="matrix" values="0 0 0 0 0 0 0 0 0 0 0 0 0 0 0 0 0 0 0.161 0"/>
<feBlend mode="normal" in2="BackgroundImageFix" result="effect1_dropShadow"/>
<feBlend mode="normal" in="SourceGraphic" in2="effect1_dropShadow" result="shape"/>
</filter>
<filter id="filter2_d" x="35.8498" y="335.451" width="95.35" height="95.3495" filterUnits="userSpaceOnUse" color-interpolation-filters="sRGB">
<feFlood flood-opacity="0" result="BackgroundImageFix"/>
<feColorMatrix in="SourceAlpha" type="matrix" values="0 0 0 0 0 0 0 0 0 0 0 0 0 0 0 0 0 0 127 0" result="hardAlpha"/>
<feOffset dy="3"/>
<feGaussianBlur stdDeviation="3"/>
<feColorMatrix type="matrix" values="0 0 0 0 0.858824 0 0 0 0 0.866667 0 0 0 0 0.909804 0 0 0 1 0"/>
<feBlend mode="normal" in2="BackgroundImageFix" result="effect1_dropShadow"/>
<feBlend mode="normal" in="SourceGraphic" in2="effect1_dropShadow" result="shape"/>
</filter>
<filter id="filter3_d" x="0.411133" y="172.625" width="95.3507" height="95.3497" filterUnits="userSpaceOnUse" color-interpolation-filters="sRGB">
<feFlood flood-opacity="0" result="BackgroundImageFix"/>
<feColorMatrix in="SourceAlpha" type="matrix" values="0 0 0 0 0 0 0 0 0 0 0 0 0 0 0 0 0 0 127 0" result="hardAlpha"/>
<feOffset dy="3"/>
<feGaussianBlur stdDeviation="3"/>
<feColorMatrix type="matrix" values="0 0 0 0 0 0 0 0 0 0 0 0 0 0 0 0 0 0 0.161 0"/>
<feBlend mode="normal" in2="BackgroundImageFix" result="effect1_dropShadow"/>
<feBlend mode="normal" in="SourceGraphic" in2="effect1_dropShadow" result="shape"/>
</filter>
<filter id="filter4_d" x="35.8498" y="0.220703" width="95.35" height="95.3494" filterUnits="userSpaceOnUse" color-interpolation-filters="sRGB">
<feFlood flood-opacity="0" result="BackgroundImageFix"/>
<feColorMatrix in="SourceAlpha" type="matrix" values="0 0 0 0 0 0 0 0 0 0 0 0 0 0 0 0 0 0 127 0" result="hardAlpha"/>
<feOffset dy="3"/>
<feGaussianBlur stdDeviation="3"/>
<feColorMatrix type="matrix" values="0 0 0 0 0.858824 0 0 0 0 0.866667 0 0 0 0 0.909804 0 0 0 1 0"/>
<feBlend mode="normal" in2="BackgroundImageFix" result="effect1_dropShadow"/>
<feBlend mode="normal" in="SourceGraphic" in2="effect1_dropShadow" result="shape"/>
</filter>
<linearGradient id="paint0_linear" x1="141.449" y1="362.285" x2="216.85" y2="248.677" gradientUnits="userSpaceOnUse">
<stop stop-color="#E3FEFE"/>
<stop offset="1" stop-color="#49DFE9"/>
</linearGradient>
<linearGradient id="paint1_linear" x1="238.199" y1="217.289" x2="89.7398" y2="217.289" gradientUnits="userSpaceOnUse">
<stop stop-color="#FA9981"/>
<stop offset="1" stop-color="#FFC9BC"/>
</linearGradient>
<linearGradient id="paint2_linear" x1="189.964" y1="211.878" x2="112.239" y2="107.68" gradientUnits="userSpaceOnUse">
<stop stop-color="#A36DFF"/>
<stop offset="1" stop-color="#CDB3FD"/>
</linearGradient>
</defs>
</svg>
