<svg width="312" height="175" viewBox="0 0 312 175" fill="none" xmlns="http://www.w3.org/2000/svg">
<g filter="url(#filter0_d)">
<rect x="30" y="10" width="212" height="75" rx="15" fill="white"/>
</g>
<rect x="45" y="20" width="60" height="56" rx="14" fill="#E3FEFE"/>
<path d="M59 62L70.5 50.5L74.46 55M81.5 63L74.46 55M74.46 55L83 45L91.5 54.5" stroke="#5DC7C7" stroke-width="3" stroke-linecap="round"/>
<rect x="58.5" y="31.5" width="33" height="32" rx="4.5" stroke="#5DC7C7" stroke-width="3"/>
<circle cx="70" cy="43" r="3" fill="#5DC7C7"/>
<path d="M127.5 39C128.753 39 129.827 39.3133 130.72 39.94C131.627 40.5533 132.313 41.3933 132.78 42.46C133.26 43.5133 133.5 44.6933 133.5 46C133.5 47.3067 133.26 48.4933 132.78 49.56C132.313 50.6133 131.627 51.4533 130.72 52.08C129.827 52.6933 128.753 53 127.5 53H122.72C122.373 53 122.08 52.8867 121.84 52.66C121.613 52.42 121.5 52.1267 121.5 51.78V40.22C121.5 39.8733 121.613 39.5867 121.84 39.36C122.08 39.12 122.373 39 122.72 39H127.5ZM127.3 50.7C128.5 50.7 129.4 50.26 130 49.38C130.6 48.4867 130.9 47.36 130.9 46C130.9 44.64 130.593 43.52 129.98 42.64C129.38 41.7467 128.487 41.3 127.3 41.3H124V50.7H127.3ZM141.157 42.1C141.557 42.1 141.89 42.2133 142.157 42.44C142.437 42.6667 142.577 42.9333 142.577 43.24C142.577 43.6533 142.47 43.9667 142.257 44.18C142.044 44.38 141.79 44.48 141.497 44.48C141.297 44.48 141.07 44.4333 140.817 44.34C140.777 44.3267 140.684 44.3 140.537 44.26C140.404 44.22 140.257 44.2 140.097 44.2C139.75 44.2 139.417 44.3067 139.097 44.52C138.777 44.7333 138.51 45.06 138.297 45.5C138.097 45.9267 137.997 46.44 137.997 47.04V51.78C137.997 52.1267 137.884 52.42 137.657 52.66C137.43 52.8867 137.144 53 136.797 53C136.45 53 136.164 52.8867 135.937 52.66C135.71 52.42 135.597 52.1267 135.597 51.78V43.52C135.597 43.1733 135.71 42.8867 135.937 42.66C136.164 42.42 136.45 42.3 136.797 42.3C137.144 42.3 137.43 42.42 137.657 42.66C137.884 42.8867 137.997 43.1733 137.997 43.52V43.78C138.304 43.2333 138.744 42.82 139.317 42.54C139.89 42.2467 140.504 42.1 141.157 42.1ZM154.1 47.66C154.1 48.7267 153.86 49.6867 153.38 50.54C152.9 51.38 152.24 52.0333 151.4 52.5C150.573 52.9667 149.66 53.2 148.66 53.2C147.646 53.2 146.726 52.9667 145.9 52.5C145.073 52.0333 144.42 51.38 143.94 50.54C143.46 49.6867 143.22 48.7267 143.22 47.66C143.22 46.5933 143.46 45.64 143.94 44.8C144.42 43.9467 145.073 43.2867 145.9 42.82C146.726 42.34 147.646 42.1 148.66 42.1C149.66 42.1 150.573 42.34 151.4 42.82C152.24 43.2867 152.9 43.9467 153.38 44.8C153.86 45.64 154.1 46.5933 154.1 47.66ZM151.7 47.66C151.7 47.0067 151.56 46.4267 151.28 45.92C151.013 45.4 150.646 45 150.18 44.72C149.726 44.44 149.22 44.3 148.66 44.3C148.1 44.3 147.586 44.44 147.12 44.72C146.666 45 146.3 45.4 146.02 45.92C145.753 46.4267 145.62 47.0067 145.62 47.66C145.62 48.3133 145.753 48.8933 146.02 49.4C146.3 49.9067 146.666 50.3 147.12 50.58C147.586 50.86 148.1 51 148.66 51C149.22 51 149.726 50.86 150.18 50.58C150.646 50.3 151.013 49.9067 151.28 49.4C151.56 48.8933 151.7 48.3133 151.7 47.66ZM161.645 42.1C162.565 42.1 163.398 42.34 164.145 42.82C164.891 43.2867 165.478 43.94 165.905 44.78C166.345 45.62 166.565 46.5733 166.565 47.64C166.565 48.7067 166.351 49.6667 165.925 50.52C165.498 51.36 164.911 52.02 164.165 52.5C163.431 52.9667 162.618 53.2 161.725 53.2C161.085 53.2 160.478 53.0733 159.905 52.82C159.345 52.5533 158.878 52.2333 158.505 51.86V55.78C158.505 56.1267 158.391 56.4133 158.165 56.64C157.938 56.88 157.651 57 157.305 57C156.958 57 156.671 56.8867 156.445 56.66C156.218 56.4333 156.105 56.14 156.105 55.78V43.52C156.105 43.1733 156.218 42.8867 156.445 42.66C156.671 42.42 156.958 42.3 157.305 42.3C157.651 42.3 157.938 42.42 158.165 42.66C158.391 42.8867 158.505 43.1733 158.505 43.52V43.6C158.825 43.2 159.271 42.8533 159.845 42.56C160.418 42.2533 161.018 42.1 161.645 42.1ZM161.345 51C162.198 51 162.898 50.68 163.445 50.04C163.991 49.4 164.265 48.6 164.265 47.64C164.265 46.68 163.991 45.8867 163.445 45.26C162.911 44.62 162.211 44.3 161.345 44.3C160.478 44.3 159.771 44.62 159.225 45.26C158.678 45.8867 158.405 46.68 158.405 47.64C158.405 48.6 158.678 49.4 159.225 50.04C159.771 50.68 160.478 51 161.345 51ZM169.626 52.98C169.239 52.98 168.939 52.88 168.726 52.68C168.526 52.4667 168.426 52.1667 168.426 51.78V51.44C168.426 51.0533 168.526 50.76 168.726 50.56C168.939 50.3467 169.239 50.24 169.626 50.24H169.886C170.272 50.24 170.566 50.3467 170.766 50.56C170.979 50.76 171.086 51.0533 171.086 51.44V51.78C171.086 52.1667 170.979 52.4667 170.766 52.68C170.566 52.88 170.272 52.98 169.886 52.98H169.626ZM172.966 56.92C172.646 56.92 172.379 56.8133 172.166 56.6C171.953 56.3867 171.846 56.12 171.846 55.8V55.58C171.846 55.0467 172.186 54.68 172.866 54.48C173.293 54.3467 173.559 54.12 173.666 53.8C173.786 53.4933 173.846 53.06 173.846 52.5V43.52C173.846 43.1733 173.959 42.8867 174.186 42.66C174.413 42.42 174.699 42.3 175.046 42.3C175.393 42.3 175.679 42.42 175.906 42.66C176.133 42.8867 176.246 43.1733 176.246 43.52V53.2C176.246 53.9467 176.099 54.6 175.806 55.16C175.526 55.72 175.133 56.1533 174.626 56.46C174.133 56.7667 173.579 56.92 172.966 56.92ZM175.006 41C174.553 41 174.233 40.9267 174.046 40.78C173.859 40.6333 173.766 40.3733 173.766 40V39.62C173.766 39.2467 173.866 38.9867 174.066 38.84C174.266 38.6933 174.586 38.62 175.026 38.62C175.493 38.62 175.819 38.6933 176.006 38.84C176.193 38.9867 176.286 39.2467 176.286 39.62V40C176.286 40.3867 176.186 40.6533 175.986 40.8C175.799 40.9333 175.473 41 175.006 41ZM184.594 42.1C185.514 42.1 186.347 42.34 187.094 42.82C187.841 43.2867 188.427 43.94 188.854 44.78C189.294 45.62 189.514 46.5733 189.514 47.64C189.514 48.7067 189.301 49.6667 188.874 50.52C188.447 51.36 187.861 52.02 187.114 52.5C186.381 52.9667 185.567 53.2 184.674 53.2C184.034 53.2 183.427 53.0733 182.854 52.82C182.294 52.5533 181.827 52.2333 181.454 51.86V55.78C181.454 56.1267 181.341 56.4133 181.114 56.64C180.887 56.88 180.601 57 180.254 57C179.907 57 179.621 56.8867 179.394 56.66C179.167 56.4333 179.054 56.14 179.054 55.78V43.52C179.054 43.1733 179.167 42.8867 179.394 42.66C179.621 42.42 179.907 42.3 180.254 42.3C180.601 42.3 180.887 42.42 181.114 42.66C181.341 42.8867 181.454 43.1733 181.454 43.52V43.6C181.774 43.2 182.221 42.8533 182.794 42.56C183.367 42.2533 183.967 42.1 184.594 42.1ZM184.294 51C185.147 51 185.847 50.68 186.394 50.04C186.941 49.4 187.214 48.6 187.214 47.64C187.214 46.68 186.941 45.8867 186.394 45.26C185.861 44.62 185.161 44.3 184.294 44.3C183.427 44.3 182.721 44.62 182.174 45.26C181.627 45.8867 181.354 46.68 181.354 47.64C181.354 48.6 181.627 49.4 182.174 50.04C182.721 50.68 183.427 51 184.294 51ZM200.375 42.1C200.722 42.1 201.008 42.2133 201.235 42.44C201.462 42.6667 201.575 42.96 201.575 43.32V52.22C201.575 53.8467 201.068 55.0467 200.055 55.82C199.055 56.6067 197.782 57 196.235 57C195.835 57 195.282 56.9333 194.575 56.8C193.882 56.6667 193.388 56.5333 193.095 56.4C192.442 56.12 192.115 55.7333 192.115 55.24C192.115 55.1467 192.135 55.04 192.175 54.92C192.255 54.6267 192.388 54.4 192.575 54.24C192.775 54.0933 192.988 54.02 193.215 54.02C193.348 54.02 193.475 54.04 193.595 54.08C193.648 54.0933 193.975 54.2133 194.575 54.44C195.188 54.68 195.742 54.8 196.235 54.8C197.222 54.8 197.955 54.6 198.435 54.2C198.928 53.8133 199.175 53.26 199.175 52.54V51.58C198.882 51.9933 198.435 52.3667 197.835 52.7C197.248 53.0333 196.615 53.2 195.935 53.2C195.002 53.2 194.148 52.9667 193.375 52.5C192.615 52.02 192.015 51.36 191.575 50.52C191.135 49.68 190.915 48.7267 190.915 47.66C190.915 46.5933 191.128 45.64 191.555 44.8C191.995 43.9467 192.588 43.2867 193.335 42.82C194.095 42.34 194.935 42.1 195.855 42.1C196.535 42.1 197.168 42.24 197.755 42.52C198.342 42.8 198.815 43.14 199.175 43.54V43.32C199.175 42.9733 199.288 42.6867 199.515 42.46C199.742 42.22 200.028 42.1 200.375 42.1ZM196.235 51C197.128 51 197.855 50.6867 198.415 50.06C198.988 49.42 199.275 48.62 199.275 47.66C199.275 46.7 198.988 45.9 198.415 45.26C197.855 44.62 197.128 44.3 196.235 44.3C195.342 44.3 194.615 44.62 194.055 45.26C193.495 45.9 193.215 46.7 193.215 47.66C193.215 48.62 193.495 49.42 194.055 50.06C194.615 50.6867 195.342 51 196.235 51Z" fill="#5DC7C7"/>
<defs>
<filter id="filter0_d" x="0" y="0" width="312" height="175" filterUnits="userSpaceOnUse" color-interpolation-filters="sRGB">
<feFlood flood-opacity="0" result="BackgroundImageFix"/>
<feColorMatrix in="SourceAlpha" type="matrix" values="0 0 0 0 0 0 0 0 0 0 0 0 0 0 0 0 0 0 127 0" result="hardAlpha"/>
<feOffset dx="20" dy="40"/>
<feGaussianBlur stdDeviation="25"/>
<feComposite in2="hardAlpha" operator="out"/>
<feColorMatrix type="matrix" values="0 0 0 0 1 0 0 0 0 0.87451 0 0 0 0 0.847059 0 0 0 1 0"/>
<feBlend mode="normal" in2="BackgroundImageFix" result="effect1_dropShadow"/>
<feBlend mode="normal" in="SourceGraphic" in2="effect1_dropShadow" result="shape"/>
</filter>
</defs>
</svg>
