<svg width="312" height="175" viewBox="0 0 312 175" fill="none" xmlns="http://www.w3.org/2000/svg">
<g filter="url(#filter0_d)">
<rect x="50" y="30" width="212" height="75" rx="15" fill="white"/>
</g>
<path d="M134.5 62C135.753 62 136.827 62.3133 137.72 62.94C138.627 63.5533 139.313 64.3933 139.78 65.46C140.26 66.5133 140.5 67.6933 140.5 69C140.5 70.3067 140.26 71.4933 139.78 72.56C139.313 73.6133 138.627 74.4533 137.72 75.08C136.827 75.6933 135.753 76 134.5 76H129.72C129.373 76 129.08 75.8867 128.84 75.66C128.613 75.42 128.5 75.1267 128.5 74.78V63.22C128.5 62.8733 128.613 62.5867 128.84 62.36C129.08 62.12 129.373 62 129.72 62H134.5ZM134.3 73.7C135.5 73.7 136.4 73.26 137 72.38C137.6 71.4867 137.9 70.36 137.9 69C137.9 67.64 137.593 66.52 136.98 65.64C136.38 64.7467 135.487 64.3 134.3 64.3H131V73.7H134.3ZM148.157 65.1C148.557 65.1 148.89 65.2133 149.157 65.44C149.437 65.6667 149.577 65.9333 149.577 66.24C149.577 66.6533 149.47 66.9667 149.257 67.18C149.044 67.38 148.79 67.48 148.497 67.48C148.297 67.48 148.07 67.4333 147.817 67.34C147.777 67.3267 147.684 67.3 147.537 67.26C147.404 67.22 147.257 67.2 147.097 67.2C146.75 67.2 146.417 67.3067 146.097 67.52C145.777 67.7333 145.51 68.06 145.297 68.5C145.097 68.9267 144.997 69.44 144.997 70.04V74.78C144.997 75.1267 144.884 75.42 144.657 75.66C144.43 75.8867 144.144 76 143.797 76C143.45 76 143.164 75.8867 142.937 75.66C142.71 75.42 142.597 75.1267 142.597 74.78V66.52C142.597 66.1733 142.71 65.8867 142.937 65.66C143.164 65.42 143.45 65.3 143.797 65.3C144.144 65.3 144.43 65.42 144.657 65.66C144.884 65.8867 144.997 66.1733 144.997 66.52V66.78C145.304 66.2333 145.744 65.82 146.317 65.54C146.89 65.2467 147.504 65.1 148.157 65.1ZM161.1 70.66C161.1 71.7267 160.86 72.6867 160.38 73.54C159.9 74.38 159.24 75.0333 158.4 75.5C157.573 75.9667 156.66 76.2 155.66 76.2C154.646 76.2 153.726 75.9667 152.9 75.5C152.073 75.0333 151.42 74.38 150.94 73.54C150.46 72.6867 150.22 71.7267 150.22 70.66C150.22 69.5933 150.46 68.64 150.94 67.8C151.42 66.9467 152.073 66.2867 152.9 65.82C153.726 65.34 154.646 65.1 155.66 65.1C156.66 65.1 157.573 65.34 158.4 65.82C159.24 66.2867 159.9 66.9467 160.38 67.8C160.86 68.64 161.1 69.5933 161.1 70.66ZM158.7 70.66C158.7 70.0067 158.56 69.4267 158.28 68.92C158.013 68.4 157.646 68 157.18 67.72C156.726 67.44 156.22 67.3 155.66 67.3C155.1 67.3 154.586 67.44 154.12 67.72C153.666 68 153.3 68.4 153.02 68.92C152.753 69.4267 152.62 70.0067 152.62 70.66C152.62 71.3133 152.753 71.8933 153.02 72.4C153.3 72.9067 153.666 73.3 154.12 73.58C154.586 73.86 155.1 74 155.66 74C156.22 74 156.726 73.86 157.18 73.58C157.646 73.3 158.013 72.9067 158.28 72.4C158.56 71.8933 158.7 71.3133 158.7 70.66ZM168.645 65.1C169.565 65.1 170.398 65.34 171.145 65.82C171.891 66.2867 172.478 66.94 172.905 67.78C173.345 68.62 173.565 69.5733 173.565 70.64C173.565 71.7067 173.351 72.6667 172.925 73.52C172.498 74.36 171.911 75.02 171.165 75.5C170.431 75.9667 169.618 76.2 168.725 76.2C168.085 76.2 167.478 76.0733 166.905 75.82C166.345 75.5533 165.878 75.2333 165.505 74.86V78.78C165.505 79.1267 165.391 79.4133 165.165 79.64C164.938 79.88 164.651 80 164.305 80C163.958 80 163.671 79.8867 163.445 79.66C163.218 79.4333 163.105 79.14 163.105 78.78V66.52C163.105 66.1733 163.218 65.8867 163.445 65.66C163.671 65.42 163.958 65.3 164.305 65.3C164.651 65.3 164.938 65.42 165.165 65.66C165.391 65.8867 165.505 66.1733 165.505 66.52V66.6C165.825 66.2 166.271 65.8533 166.845 65.56C167.418 65.2533 168.018 65.1 168.645 65.1ZM168.345 74C169.198 74 169.898 73.68 170.445 73.04C170.991 72.4 171.265 71.6 171.265 70.64C171.265 69.68 170.991 68.8867 170.445 68.26C169.911 67.62 169.211 67.3 168.345 67.3C167.478 67.3 166.771 67.62 166.225 68.26C165.678 68.8867 165.405 69.68 165.405 70.64C165.405 71.6 165.678 72.4 166.225 73.04C166.771 73.68 167.478 74 168.345 74ZM181.106 65.1C182.026 65.1 182.859 65.34 183.606 65.82C184.352 66.2867 184.939 66.94 185.366 67.78C185.806 68.62 186.026 69.5733 186.026 70.64C186.026 71.7067 185.812 72.6667 185.386 73.52C184.959 74.36 184.372 75.02 183.626 75.5C182.892 75.9667 182.079 76.2 181.186 76.2C180.546 76.2 179.939 76.0733 179.366 75.82C178.806 75.5533 178.339 75.2333 177.966 74.86V74.98C177.966 75.3267 177.852 75.62 177.626 75.86C177.399 76.0867 177.112 76.2 176.766 76.2C176.419 76.2 176.132 76.0867 175.906 75.86C175.679 75.6333 175.566 75.34 175.566 74.98V62.42C175.566 62.0733 175.679 61.7867 175.906 61.56C176.132 61.32 176.419 61.2 176.766 61.2C177.112 61.2 177.399 61.32 177.626 61.56C177.852 61.7867 177.966 62.0733 177.966 62.42V66.6C178.286 66.2 178.732 65.8533 179.306 65.56C179.879 65.2533 180.479 65.1 181.106 65.1ZM180.806 74C181.659 74 182.359 73.68 182.906 73.04C183.452 72.4 183.726 71.6 183.726 70.64C183.726 69.68 183.452 68.8867 182.906 68.26C182.372 67.62 181.672 67.3 180.806 67.3C179.939 67.3 179.232 67.62 178.686 68.26C178.139 68.8867 177.866 69.68 177.866 70.64C177.866 71.6 178.139 72.4 178.686 73.04C179.232 73.68 179.939 74 180.806 74ZM198.307 70.66C198.307 71.7267 198.067 72.6867 197.587 73.54C197.107 74.38 196.447 75.0333 195.607 75.5C194.78 75.9667 193.867 76.2 192.867 76.2C191.853 76.2 190.933 75.9667 190.107 75.5C189.28 75.0333 188.627 74.38 188.147 73.54C187.667 72.6867 187.427 71.7267 187.427 70.66C187.427 69.5933 187.667 68.64 188.147 67.8C188.627 66.9467 189.28 66.2867 190.107 65.82C190.933 65.34 191.853 65.1 192.867 65.1C193.867 65.1 194.78 65.34 195.607 65.82C196.447 66.2867 197.107 66.9467 197.587 67.8C198.067 68.64 198.307 69.5933 198.307 70.66ZM195.907 70.66C195.907 70.0067 195.767 69.4267 195.487 68.92C195.22 68.4 194.853 68 194.387 67.72C193.933 67.44 193.427 67.3 192.867 67.3C192.307 67.3 191.793 67.44 191.327 67.72C190.873 68 190.507 68.4 190.227 68.92C189.96 69.4267 189.827 70.0067 189.827 70.66C189.827 71.3133 189.96 71.8933 190.227 72.4C190.507 72.9067 190.873 73.3 191.327 73.58C191.793 73.86 192.307 74 192.867 74C193.427 74 193.933 73.86 194.387 73.58C194.853 73.3 195.22 72.9067 195.487 72.4C195.767 71.8933 195.907 71.3133 195.907 70.66ZM208.192 74.1C208.365 74.3133 208.452 74.5533 208.452 74.82C208.452 75.1533 208.325 75.44 208.072 75.68C207.818 75.92 207.538 76.04 207.232 76.04C206.845 76.04 206.518 75.8667 206.252 75.52L203.852 72.54L201.512 75.52C201.392 75.68 201.245 75.8067 201.072 75.9C200.912 75.98 200.738 76.02 200.552 76.02C200.272 76.02 200.005 75.9133 199.752 75.7C199.498 75.4867 199.372 75.24 199.372 74.96C199.372 74.6933 199.472 74.44 199.672 74.2L202.452 70.8L199.572 67.22C199.398 67.0067 199.312 66.7667 199.312 66.5C199.312 66.1667 199.432 65.8867 199.672 65.66C199.925 65.42 200.212 65.3 200.532 65.3C200.918 65.3 201.245 65.4667 201.512 65.8L203.972 68.86L206.252 65.84C206.505 65.48 206.825 65.3 207.212 65.3C207.532 65.3 207.798 65.4133 208.012 65.64C208.238 65.8533 208.352 66.1 208.352 66.38C208.352 66.6733 208.258 66.9333 208.072 67.16L205.312 70.52L208.192 74.1ZM220.803 63.32C220.35 63.32 220.03 63.4533 219.843 63.72C219.657 63.9733 219.563 64.2533 219.563 64.56V65.5H221.383C221.703 65.5 221.97 65.6067 222.183 65.82C222.397 66.02 222.503 66.28 222.503 66.6C222.503 66.92 222.397 67.1867 222.183 67.4C221.97 67.6 221.703 67.7 221.383 67.7H219.563V74.78C219.563 75.1267 219.45 75.42 219.223 75.66C218.997 75.8867 218.71 76 218.363 76C218.017 76 217.73 75.8867 217.503 75.66C217.277 75.42 217.163 75.1267 217.163 74.78V67.7H216.083C215.763 67.7 215.497 67.6 215.283 67.4C215.07 67.1867 214.963 66.92 214.963 66.6C214.963 66.28 215.07 66.02 215.283 65.82C215.497 65.6067 215.763 65.5 216.083 65.5H217.163V64.58C217.163 63.58 217.503 62.7667 218.183 62.14C218.877 61.5133 219.87 61.2 221.163 61.2C221.657 61.2 222.083 61.3 222.443 61.5C222.817 61.7 223.003 62.0067 223.003 62.42C223.003 62.74 222.91 63 222.723 63.2C222.537 63.4 222.31 63.5 222.043 63.5C221.977 63.5 221.903 63.4933 221.823 63.48C221.757 63.4667 221.683 63.4533 221.603 63.44C221.283 63.36 221.017 63.32 220.803 63.32ZM226.263 74.78C226.263 75.1267 226.15 75.42 225.923 75.66C225.697 75.8867 225.41 76 225.063 76C224.717 76 224.43 75.8867 224.203 75.66C223.977 75.42 223.863 75.1267 223.863 74.78V66.52C223.863 66.1733 223.977 65.8867 224.203 65.66C224.43 65.42 224.717 65.3 225.063 65.3C225.41 65.3 225.697 65.42 225.923 65.66C226.15 65.8867 226.263 66.1733 226.263 66.52V74.78ZM225.043 64C224.59 64 224.27 63.9267 224.083 63.78C223.897 63.6333 223.803 63.3733 223.803 63V62.62C223.803 62.2467 223.903 61.9867 224.103 61.84C224.303 61.6933 224.623 61.62 225.063 61.62C225.53 61.62 225.857 61.6933 226.043 61.84C226.23 61.9867 226.323 62.2467 226.323 62.62V63C226.323 63.3867 226.223 63.6533 226.023 63.8C225.837 63.9333 225.51 64 225.043 64ZM231.33 74.78C231.33 75.1267 231.21 75.42 230.97 75.66C230.743 75.8867 230.456 76 230.11 76C229.776 76 229.496 75.8867 229.27 75.66C229.043 75.42 228.93 75.1267 228.93 74.78V62.42C228.93 62.0733 229.043 61.7867 229.27 61.56C229.51 61.32 229.803 61.2 230.15 61.2C230.483 61.2 230.763 61.32 230.99 61.56C231.216 61.7867 231.33 62.0733 231.33 62.42V74.78ZM243.525 70.4C243.512 70.72 243.385 70.98 243.145 71.18C242.905 71.38 242.625 71.48 242.305 71.48H235.705C235.865 72.2667 236.232 72.8867 236.805 73.34C237.378 73.78 238.025 74 238.745 74C239.292 74 239.718 73.9533 240.025 73.86C240.332 73.7533 240.572 73.6467 240.745 73.54C240.932 73.42 241.058 73.34 241.125 73.3C241.365 73.18 241.592 73.12 241.805 73.12C242.085 73.12 242.325 73.22 242.525 73.42C242.725 73.62 242.825 73.8533 242.825 74.12C242.825 74.48 242.638 74.8067 242.265 75.1C241.892 75.4067 241.392 75.6667 240.765 75.88C240.138 76.0933 239.505 76.2 238.865 76.2C237.745 76.2 236.765 75.9667 235.925 75.5C235.098 75.0333 234.458 74.3933 234.005 73.58C233.552 72.7533 233.325 71.8267 233.325 70.8C233.325 69.6533 233.565 68.6467 234.045 67.78C234.525 66.9133 235.158 66.2533 235.945 65.8C236.732 65.3333 237.572 65.1 238.465 65.1C239.345 65.1 240.172 65.34 240.945 65.82C241.732 66.3 242.358 66.9467 242.825 67.76C243.292 68.5733 243.525 69.4533 243.525 70.4ZM238.465 67.3C236.918 67.3 236.005 68.0267 235.725 69.48H240.965V69.34C240.912 68.78 240.638 68.3 240.145 67.9C239.652 67.5 239.092 67.3 238.465 67.3Z" fill="#0D65B2"/>
<rect x="65" y="41.5" width="54" height="51" rx="14" fill="#0D65B3"/>
<path d="M74.9177 68.9238L74.8203 69.0748L74.9177 68.9238C74.9178 68.9238 74.9179 68.9239 74.918 68.924L74.9177 68.9238ZM80.9831 64.3447L89.8144 70.0413L83.9581 74.7553L75.1269 69.0587L80.9831 64.3447ZM84.0674 74.8258L84.0674 74.8258C84.0674 74.8258 84.0674 74.8258 84.0674 74.8258ZM90.0235 70.1762C90.0234 70.1762 90.0234 70.1761 90.0233 70.1761L90.0235 70.1762ZM81.0844 64.2631C81.0844 64.2632 81.0844 64.2632 81.0844 64.2632L81.0844 64.2631Z" stroke="white" stroke-width="2"/>
<path d="M99.9161 74.7605L93.9807 70.0417L102.931 64.3396L108.866 69.0583L99.9161 74.7605ZM109.068 69.2185C109.068 69.2185 109.068 69.2184 109.068 69.2183L109.068 69.2185L109.068 69.2185ZM103.029 64.2772C103.029 64.2773 103.029 64.2773 103.029 64.2774L103.029 64.2772L103.029 64.2772Z" stroke="white" stroke-width="2"/>
<mask id="path-6-inside-1" fill="white">
<path d="M90.6352 54.9698L84.4838 49.9343C84.2085 49.7089 83.8223 49.6883 83.5253 49.8831L74.3756 55.8852C73.9056 56.1936 73.8703 56.8795 74.3059 57.2361L80.4574 62.2716C80.7327 62.4969 81.1189 62.5176 81.4158 62.3228L90.5656 56.3206C91.0356 56.0123 91.0709 55.3264 90.6352 54.9698Z"/>
</mask>
<path d="M90.6352 54.9698L89.3684 56.5174L89.3684 56.5174L90.6352 54.9698ZM84.4838 49.9343L85.7506 48.3867L85.7505 48.3866L84.4838 49.9343ZM83.5253 49.8831L84.6224 51.5554L84.6224 51.5554L83.5253 49.8831ZM74.3756 55.8852L75.4726 57.5575L75.4726 57.5575L74.3756 55.8852ZM74.3059 57.2361L75.5728 55.6885L75.5728 55.6885L74.3059 57.2361ZM80.4574 62.2716L79.1905 63.8192L79.1907 63.8193L80.4574 62.2716ZM81.4158 62.3228L80.3188 60.6505L80.3188 60.6505L81.4158 62.3228ZM90.5656 56.3206L89.4686 54.6483L89.4686 54.6483L90.5656 56.3206ZM91.9021 53.4222L85.7506 48.3867L83.2169 51.4819L89.3684 56.5174L91.9021 53.4222ZM85.7505 48.3866C84.8008 47.6093 83.4577 47.5356 82.4283 48.2108L84.6224 51.5554C84.1869 51.8411 83.6161 51.8086 83.2171 51.482L85.7505 48.3866ZM82.4283 48.2108L73.2786 54.213L75.4726 57.5575L84.6224 51.5554L82.4283 48.2108ZM73.2786 54.2129C71.6751 55.2649 71.5625 57.575 73.0391 58.7837L75.5728 55.6885C76.178 56.1839 76.1362 57.1223 75.4726 57.5575L73.2786 54.2129ZM73.0391 58.7837L79.1905 63.8192L81.7242 60.724L75.5728 55.6885L73.0391 58.7837ZM79.1907 63.8193C80.1404 64.5966 81.4835 64.6703 82.5129 63.995L80.3188 60.6505C80.7543 60.3648 81.325 60.3973 81.7241 60.7239L79.1907 63.8193ZM82.5128 63.9951L91.6626 57.9929L89.4686 54.6483L80.3188 60.6505L82.5128 63.9951ZM91.6626 57.9929C93.2661 56.941 93.3787 54.6309 91.9021 53.4222L89.3684 56.5174C88.7632 56.022 88.805 55.0836 89.4686 54.6483L91.6626 57.9929Z" fill="white" mask="url(#path-6-inside-1)"/>
<path d="M99.9168 50.7904L108.885 56.601L102.93 61.4155L93.9618 55.6049L99.9168 50.7904ZM93.7855 55.7474L93.7857 55.7473L93.7855 55.7474Z" stroke="white" stroke-width="2"/>
<path d="M85.1516 77.8485L85.1516 77.8484L91.9593 72.4194L98.7344 77.8455C99.1557 78.1829 99.6977 78.3003 100.204 78.1896L91.8941 83.2256L83.502 78.1398C84.0564 78.3258 84.6794 78.225 85.1516 77.8485ZM102.395 76.909C102.394 76.9091 102.394 76.9092 102.394 76.9093L102.394 76.909L102.395 76.909ZM92.0227 83.3036L92.0227 83.3036L92.0227 83.3036ZM81.7765 77.0914L81.8452 77.1357L81.7765 77.0941V77.0914Z" stroke="white" stroke-width="2"/>
<defs>
<filter id="filter0_d" x="0" y="0" width="312" height="175" filterUnits="userSpaceOnUse" color-interpolation-filters="sRGB">
<feFlood flood-opacity="0" result="BackgroundImageFix"/>
<feColorMatrix in="SourceAlpha" type="matrix" values="0 0 0 0 0 0 0 0 0 0 0 0 0 0 0 0 0 0 127 0" result="hardAlpha"/>
<feOffset dy="20"/>
<feGaussianBlur stdDeviation="25"/>
<feComposite in2="hardAlpha" operator="out"/>
<feColorMatrix type="matrix" values="0 0 0 0 0.996078 0 0 0 0 0.835294 0 0 0 0 0.835294 0 0 0 1 0"/>
<feBlend mode="normal" in2="BackgroundImageFix" result="effect1_dropShadow"/>
<feBlend mode="normal" in="SourceGraphic" in2="effect1_dropShadow" result="shape"/>
</filter>
</defs>
</svg>
