<svg width="127" height="96" viewBox="0 0 127 96" fill="none" xmlns="http://www.w3.org/2000/svg">
<rect x="1.94437" y="24.9643" width="63" height="62" rx="4.5" transform="rotate(-21.4319 1.94437 24.9643)" fill="white" stroke="#FFC9BC" stroke-width="3"/>
<path d="M24.4118 78.0953L36.8001 50.583L46.7333 55.5466M64.3923 64.371L46.7333 55.5466M46.7333 55.5466L54.9549 32.6241L76.1696 43.007" stroke="#FFC9BC" stroke-width="3" stroke-linecap="round"/>
<circle cx="22.1294" cy="46.1294" r="5.5" transform="rotate(-21.4319 22.1294 46.1294)" fill="#FFC9BC"/>
<rect x="62.5" y="32.5" width="63" height="62" rx="4.5" fill="white" stroke="#FFC9BC" stroke-width="3"/>
<circle cx="74.5" cy="62.5" r="5.5" fill="#FFC9BC"/>
<path d="M64 91.1667L85.5846 70.0833L93.0172 78.3333M106.231 93L93.0172 78.3333M93.0172 78.3333L109.046 60L125 77.4167" stroke="#FFC9BC" stroke-width="3" stroke-linecap="round"/>
<path d="M83.6045 42.5543C84.1145 42.5594 84.5979 42.7192 85.0548 43.0338C85.5118 43.3384 85.8777 43.752 86.1524 44.2748C86.4273 44.7876 86.5617 45.349 86.5557 45.9589C86.5497 46.5589 86.4041 47.1175 86.1189 47.6346C85.8337 48.1518 85.4596 48.5631 84.9965 48.8685C84.5336 49.1639 84.0471 49.309 83.5371 49.304L80.9272 49.2779L80.8989 52.1128C80.8962 52.3827 80.814 52.6019 80.6524 52.7703C80.4907 52.9387 80.2798 53.0216 80.0198 53.019C79.7699 53.0165 79.5657 52.9295 79.4074 52.7579C79.2492 52.5763 79.1714 52.3555 79.174 52.0955L79.2606 43.426C79.2632 43.166 79.3503 42.9518 79.522 42.7835C79.7038 42.6053 79.9247 42.5175 80.1847 42.5201L83.6045 42.5543ZM83.5542 47.594C83.7442 47.5959 83.93 47.5178 84.1115 47.3596C84.3031 47.2015 84.4552 46.998 84.5677 46.7491C84.6903 46.4903 84.7529 46.2209 84.7557 45.9409C84.7585 45.661 84.7012 45.3954 84.5837 45.1442C84.4763 44.8831 84.3283 44.6766 84.1399 44.5247C83.9615 44.3629 83.7773 44.2811 83.5873 44.2792L80.9774 44.2531L80.9443 47.568L83.5542 47.594ZM96.272 42.6808C96.5119 42.6832 96.7061 42.7651 96.8545 42.9266C97.0029 43.0881 97.0759 43.2888 97.0735 43.5288L96.9862 52.2734C96.9836 52.5334 96.8914 52.7525 96.7096 52.9306C96.538 53.0989 96.3221 53.1818 96.0621 53.1792C95.9221 53.1778 95.7823 53.1564 95.6427 53.115C95.5133 53.0637 95.4189 52.9978 95.3597 52.9172L89.9248 45.8726L89.8608 52.2772C89.8584 52.5172 89.7764 52.7164 89.6148 52.8748C89.4633 53.0333 89.2625 53.1113 89.0125 53.1088C88.7725 53.1064 88.5783 53.0245 88.4299 52.863C88.2815 52.7015 88.2085 52.5007 88.2109 52.2608L88.2982 43.5162C88.3008 43.2562 88.388 43.0421 88.5596 42.8738C88.7414 42.6956 88.9623 42.6078 89.2223 42.6104C89.3723 42.6119 89.517 42.6433 89.6564 42.7047C89.8058 42.7662 89.915 42.8473 89.984 42.948L95.3742 49.9622L95.4386 43.5125C95.441 43.2725 95.518 43.0733 95.6696 42.9148C95.8312 42.7564 96.032 42.6784 96.272 42.6808ZM107.028 47.6184C107.288 47.621 107.503 47.7131 107.671 47.8948C107.839 48.0665 107.922 48.2824 107.919 48.5423L107.888 51.7222C107.884 52.0722 107.726 52.3406 107.414 52.5275C106.428 53.1277 105.35 53.4219 104.18 53.4103C103.191 53.4004 102.278 53.1512 101.443 52.6629C100.608 52.1645 99.9493 51.5029 99.4675 50.6781C98.9859 49.8432 98.7499 48.9358 98.7597 47.9559C98.7695 46.9759 99.0234 46.0784 99.5216 45.2633C100.02 44.4383 100.691 43.7899 101.536 43.3184C102.381 42.8368 103.298 42.6009 104.288 42.6108C105.278 42.6207 106.136 42.8293 106.862 43.2365C107.011 43.318 107.12 43.4241 107.189 43.5548C107.268 43.6856 107.306 43.826 107.305 43.976C107.302 44.226 107.215 44.4451 107.043 44.6334C106.881 44.8118 106.681 44.8998 106.441 44.8974C106.291 44.8959 106.126 44.8543 105.947 44.7725C105.409 44.5371 104.85 44.4165 104.27 44.4107C103.63 44.4043 103.039 44.5634 102.495 44.888C101.952 45.2026 101.518 45.6333 101.193 46.1801C100.877 46.7269 100.716 47.3254 100.71 47.9753C100.703 48.6253 100.852 49.2268 101.157 49.7799C101.471 50.3331 101.897 50.7773 102.433 51.1127C102.97 51.4381 103.559 51.604 104.198 51.6103C104.478 51.6131 104.779 51.5911 105.099 51.5443C105.42 51.4975 105.7 51.4353 105.941 51.3577L105.961 49.4078L104.551 49.3938C104.291 49.3912 104.071 49.304 103.893 49.1322C103.725 48.9605 103.642 48.7446 103.645 48.4847C103.647 48.2247 103.734 48.0105 103.906 47.8422C104.088 47.674 104.309 47.5912 104.569 47.5938L107.028 47.6184Z" fill="#FFA78E"/>
<path d="M27.7663 34.9803C27.2342 35.1847 26.6982 35.2674 26.1583 35.2285C25.6149 35.1802 25.1231 35.0156 24.6831 34.7348C24.5065 34.6098 24.3878 34.468 24.3268 34.3093C24.2407 34.0852 24.2559 33.8598 24.3722 33.633C24.485 33.3968 24.6348 33.2428 24.8215 33.1711C25.0642 33.0778 25.3793 33.1174 25.767 33.2899C26.0089 33.3898 26.2376 33.4412 26.4529 33.4441C26.6647 33.4377 26.8873 33.3897 27.1207 33.3C27.3914 33.196 27.6212 33.0274 27.8101 32.7941C28.0083 32.5572 28.1373 32.2934 28.197 32.0027C28.2531 31.7026 28.2309 31.4219 28.1305 31.1605L25.8709 25.2797C25.7776 25.037 25.7892 24.8022 25.9056 24.5753C26.0184 24.3392 26.1915 24.1763 26.4248 24.0866C26.6862 23.9862 26.9267 23.9848 27.1464 24.0825C27.366 24.1802 27.5243 24.3551 27.6211 24.6072L29.8807 30.488C30.0959 31.0481 30.1492 31.6329 30.0406 32.2424C29.932 32.8519 29.6784 33.4046 29.2798 33.9006C28.8775 34.3872 28.3731 34.7471 27.7663 34.9803ZM33.4364 21.3925C33.9125 21.2096 34.4208 21.1803 34.9614 21.3047C35.4984 21.4198 35.9908 21.6698 36.4387 22.0547C36.883 22.4304 37.2145 22.9029 37.4333 23.4723C37.6485 24.0324 37.7187 24.6054 37.6438 25.1912C37.569 25.777 37.3724 26.2971 37.0542 26.7515C36.7324 27.1965 36.3335 27.5105 35.8574 27.6934L33.4211 28.6295L34.4379 31.2759C34.5348 31.5279 34.539 31.762 34.4506 31.9781C34.3622 32.1941 34.1967 32.3488 33.954 32.4421C33.7206 32.5317 33.4988 32.5259 33.2884 32.4246C33.0745 32.314 32.9209 32.1373 32.8277 31.8946L29.718 23.8014C29.6248 23.5587 29.627 23.3276 29.7247 23.1079C29.8282 22.8753 30.0013 22.7124 30.244 22.6191L33.4364 21.3925ZM35.2441 26.0972C35.4215 26.029 35.5655 25.888 35.6761 25.6741C35.7961 25.4566 35.8626 25.2114 35.8756 24.9386C35.8943 24.6528 35.8535 24.3793 35.7531 24.1179C35.6527 23.8566 35.5016 23.6307 35.2999 23.4404C35.104 23.2371 34.8904 23.0996 34.6593 23.0277C34.4339 22.9429 34.2325 22.9346 34.0551 23.0027L31.6188 23.9389L32.8078 27.0333L35.2441 26.0972ZM46.784 21.4382C47.0267 21.3449 47.2597 21.3518 47.4829 21.4589C47.7026 21.5566 47.859 21.7268 47.9523 21.9695L49.0928 24.9379C49.2184 25.2646 49.1705 25.5723 48.9493 25.8608C48.2533 26.7817 47.3592 27.452 46.2671 27.8716C45.3429 28.2267 44.4027 28.3309 43.4465 28.1841C42.4866 28.028 41.6309 27.6551 40.8794 27.0654C40.1243 26.4664 39.571 25.7094 39.2195 24.7946C38.868 23.8798 38.7739 22.9519 38.9372 22.0107C39.0969 21.0601 39.4828 20.2102 40.0947 19.4609C40.7031 18.7022 41.4693 18.1453 42.3934 17.7902C43.3176 17.4351 44.1921 17.3134 45.017 17.4249C45.1857 17.4458 45.326 17.5044 45.438 17.6006C45.5593 17.6933 45.6469 17.8096 45.7007 17.9496C45.7903 18.183 45.7899 18.4188 45.6994 18.6572C45.6146 18.8826 45.4601 19.0383 45.2361 19.1244C45.0961 19.1782 44.9277 19.2001 44.731 19.1899C44.1444 19.1689 43.5805 19.2624 43.039 19.4705C42.4416 19.7 41.9501 20.0656 41.5644 20.5674C41.1751 21.0598 40.9297 21.62 40.8282 22.2482C40.7361 22.8728 40.8067 23.4885 41.0398 24.0952C41.2729 24.702 41.6328 25.2065 42.1195 25.6087C42.6154 26.0073 43.1746 26.2638 43.7971 26.3782C44.4159 26.4832 45.024 26.421 45.6215 26.1914C45.8828 26.091 46.1539 25.96 46.4347 25.7986C46.7155 25.6371 46.9535 25.476 47.1488 25.3153L46.4494 23.495L45.1333 24.0008C44.8906 24.094 44.6547 24.0936 44.4257 23.9994C44.206 23.9017 44.0496 23.7315 43.9563 23.4888C43.8631 23.2461 43.8653 23.0149 43.963 22.7953C44.0701 22.572 44.245 22.4138 44.4877 22.3205L46.784 21.4382Z" fill="#FFA78E"/>
</svg>
