<svg width="204" height="202" viewBox="0 0 204 202" fill="none" xmlns="http://www.w3.org/2000/svg">
<g filter="url(#filter0_d)">
<path fill-rule="evenodd" clip-rule="evenodd" d="M80 30.3333C63.4315 30.3333 50 43.7648 50 60.3333V101.667C50 118.235 63.4315 131.667 80 131.667H124C140.569 131.667 154 118.235 154 101.667V60.3333C154 43.7648 140.569 30.3333 124 30.3333H80ZM139.333 81C139.333 101.619 122.619 118.333 102 118.333C81.3814 118.333 64.6667 101.619 64.6667 81C64.6667 60.3813 81.3814 43.6666 102 43.6666C122.619 43.6666 139.333 60.3813 139.333 81ZM125.333 81C125.333 93.8866 114.887 104.333 102 104.333C89.1134 104.333 78.6667 93.8866 78.6667 81C78.6667 68.1133 89.1134 57.6666 102 57.6666C114.887 57.6666 125.333 68.1133 125.333 81Z" fill="white"/>
</g>
<path d="M101.834 76.6711L96.4628 68.0461C96.3398 67.8445 96.1169 67.7257 95.8809 67.7359C95.6452 67.7423 95.4304 67.873 95.3164 68.0794L86.0831 84.7674C85.9664 84.9785 85.973 85.2362 86.1004 85.4411L91.4713 94.0674C91.5934 94.2637 91.8087 94.3827 92.0398 94.3816H92.0531C92.2888 94.3752 92.5036 94.2445 92.6176 94.0381L101.851 77.3462C101.968 77.1346 101.962 76.8762 101.834 76.6711Z" fill="#4CAF50"/>
<path d="M117.867 85.26C117.747 85.0537 117.526 84.9272 117.287 84.9285L99.9791 85.019C99.7422 85.02 99.5237 85.1467 99.4052 85.3519L94.7879 93.3656C94.604 93.6841 94.7131 94.0912 95.0315 94.275C95.1339 94.3341 95.2501 94.3649 95.3683 94.3642L112.677 94.2736C112.914 94.2727 113.132 94.146 113.251 93.9408L117.869 85.9284C117.988 85.7213 117.987 85.4662 117.867 85.26Z" fill="#2196F3"/>
<path d="M117.848 82.5892L109.118 67.9902C108.997 67.7883 108.778 67.6653 108.543 67.6667L99.2228 67.716C98.8551 67.7174 98.5582 68.0166 98.5596 68.3842C98.5601 68.5039 98.5928 68.6213 98.6543 68.7239L107.384 83.3241C107.505 83.5261 107.724 83.6491 107.96 83.6477L117.279 83.5984C117.647 83.597 117.944 83.2978 117.943 82.9302C117.942 82.8105 117.909 82.6932 117.848 82.5906V82.5892Z" fill="#FFC107"/>
<defs>
<filter id="filter0_d" x="0" y="0.333313" width="204" height="201.333" filterUnits="userSpaceOnUse" color-interpolation-filters="sRGB">
<feFlood flood-opacity="0" result="BackgroundImageFix"/>
<feColorMatrix in="SourceAlpha" type="matrix" values="0 0 0 0 0 0 0 0 0 0 0 0 0 0 0 0 0 0 127 0" result="hardAlpha"/>
<feOffset dy="20"/>
<feGaussianBlur stdDeviation="25"/>
<feComposite in2="hardAlpha" operator="out"/>
<feColorMatrix type="matrix" values="0 0 0 0 1 0 0 0 0 0.788235 0 0 0 0 0.737255 0 0 0 1 0"/>
<feBlend mode="normal" in2="BackgroundImageFix" result="effect1_dropShadow"/>
<feBlend mode="normal" in="SourceGraphic" in2="effect1_dropShadow" result="shape"/>
</filter>
</defs>
</svg>
