<svg width="47" height="45" viewBox="0 0 47 45" fill="none" xmlns="http://www.w3.org/2000/svg">
<rect x="0.5" y="0.5" width="46" height="43.8308" rx="5.5" fill="#FCF1EB" stroke="#FFA78E"/>
<path d="M33.9849 33.2613V30.5498C33.9849 29.1115 33.4136 27.7321 32.3965 26.7151C31.3795 25.6981 30.0001 25.1267 28.5618 25.1267H17.7157C16.2774 25.1267 14.898 25.6981 13.881 26.7151C12.864 27.7321 12.2926 29.1115 12.2926 30.5498V33.2613" fill="#FFA78E"/>
<path d="M23.1388 22.4152C26.1338 22.4152 28.5618 19.9873 28.5618 16.9922C28.5618 13.9971 26.1338 11.5691 23.1388 11.5691C20.1437 11.5691 17.7157 13.9971 17.7157 16.9922C17.7157 19.9873 20.1437 22.4152 23.1388 22.4152Z" fill="#FFA78E"/>
</svg>
