<svg width="47" height="45" viewBox="0 0 47 45" fill="none" xmlns="http://www.w3.org/2000/svg">
<rect x="0.5" y="0.5" width="46" height="43.83" rx="5.5" fill="#E5DAFF" stroke="#A36DFF"/>
<path fill-rule="evenodd" clip-rule="evenodd" d="M15.9976 8.81326C14.8376 9.11719 14.2879 9.68059 14.2828 10.5711C14.2769 11.6179 15.065 12.118 17.6181 12.6874C20.3179 13.2897 21.5928 13.7656 22.4588 14.4947C23.5986 15.4543 25.3571 18.3302 26.5636 21.208C26.7347 21.6161 26.9052 21.9316 26.9425 21.9092C26.9798 21.8867 27.0394 21.2884 27.0749 20.5795C27.2244 17.598 26.6385 14.234 25.7008 12.69C24.541 10.7803 22.0547 9.27703 19.2739 8.80422C18.2697 8.63353 16.6669 8.63796 15.9976 8.81326ZM29.8577 8.79599C29.2687 9.0512 28.976 9.55981 28.9782 10.3241C28.9799 10.8963 29.1385 11.5695 29.6741 13.2789C30.4817 15.8558 30.5931 17.06 30.1481 18.3973C29.6088 20.0178 27.8228 22.926 26.1712 24.8733C25.9708 25.1094 25.8595 25.3027 25.9238 25.3027C26.1258 25.3027 28.291 24.1534 29.2332 23.5459C32.105 21.6945 33.6989 19.9316 34.2244 18.0252C34.4539 17.1927 34.5028 15.2083 34.3196 14.1605C33.8829 11.663 32.5415 9.32476 31.2414 8.79518C30.8531 8.63697 30.2237 8.63733 29.8577 8.79599ZM14.0228 16.0767C11.3985 16.7666 8.62219 19.1157 7.60231 21.5092C7.15621 22.5562 7.14128 22.7285 7.40239 23.8316C7.44894 24.0286 7.87353 24.4184 8.18035 24.5459C8.62283 24.7297 9.0847 24.6972 9.59255 24.4463C10.05 24.2202 11.642 22.7548 12.3311 21.9255C12.858 21.2912 14.3706 20.0911 15.0291 19.7846C15.7913 19.4299 16.5493 19.268 18.0075 19.1482C19.3473 19.0383 21.6817 19.1399 23.4861 19.3869C24.0221 19.4602 24.4805 19.5009 24.5048 19.4773C24.597 19.3875 22.4761 18.1199 21.186 17.4938C19.7942 16.8184 18.2795 16.2765 17.1164 16.038C16.2088 15.8518 14.8115 15.8693 14.0228 16.0767ZM19.8156 20.8309C17.6337 21.9561 15.964 23.1533 14.5452 24.61C13.1385 26.0539 12.6695 27.1643 12.5893 29.2401C12.5162 31.133 12.8949 32.9201 13.6985 34.4738C14.2367 35.5145 15.1182 36.4818 15.7708 36.7476C16.5515 37.0656 17.5195 36.7713 17.8443 36.1172C18.1943 35.4123 18.1001 34.6959 17.338 32.2638C16.5362 29.7049 16.4242 28.4872 16.8674 27.1426C17.3462 25.6899 18.6329 23.5166 20.2736 21.3898C20.7255 20.804 21.0952 20.3056 21.0952 20.2824C21.0952 20.1875 20.906 20.2686 19.8156 20.8309ZM37.4699 21.0671C36.9445 21.3372 36.2909 21.9221 34.9576 23.3156C34.0996 24.2123 33.112 25.0998 32.5801 25.452C31.0817 26.4444 27.6083 26.7145 23.5281 26.1561C22.9909 26.0826 22.5316 26.0418 22.5074 26.0654C22.4152 26.1553 24.5361 27.4228 25.8262 28.0489C28.7034 29.4452 31.0483 29.9304 32.8469 29.5016C33.6745 29.3043 35.0168 28.6844 35.8882 28.0971C37.135 27.2568 38.585 25.6919 39.2116 24.5103C39.5211 23.9268 39.7658 23.0648 39.7694 22.5454C39.7783 21.2613 38.5846 20.494 37.4699 21.0671ZM20.0476 23.6467C20.0222 23.6874 19.9723 24.2902 19.9368 24.9863C19.7764 28.1333 20.4188 31.5526 21.4623 33.1059C22.9456 35.3139 26.2608 36.8766 29.455 36.8733C30.6192 36.8721 31.2665 36.7426 31.8909 36.3859C32.8308 35.8489 33.0552 34.6245 32.336 33.9577C31.8682 33.5239 31.163 33.2722 28.8977 32.7301C26.4537 32.1454 25.3326 31.712 24.5534 31.0507C23.4272 30.095 21.6782 27.2483 20.4943 24.4438C20.1145 23.5444 20.1132 23.5421 20.0476 23.6467Z" fill="#A36DFF"/>
</svg>
