<svg id="Group_10442" data-name="Group 10442" xmlns="http://www.w3.org/2000/svg" width="20.853" height="18.139" viewBox="0 0 20.853 18.139">
  <path id="Subtraction_10" data-name="Subtraction 10" d="M8.387,14.471h0L7,12.074h6.848l-5.458,2.4Zm4.9-3.6H6.3L4.309,7.436l-.215-.371-.567-.979H3.512L0,.182V0H7.054l6.235,10.868ZM2.111,6.086H0V2.537L2.11,6.084Z" transform="translate(6.9)" fill="#f8a808"/>
  <path id="Subtraction_11" data-name="Subtraction 11" d="M13.969,6.112H1.313L4.8,0H17.411L13.969,6.111ZM0,5.984V0H3.419L0,5.98Z" transform="translate(3.442 12.027)" fill="#4175df"/>
  <path id="Subtraction_12" data-name="Subtraction 12" d="M3.443,16.976h0L0,10.863,6.233,0l3.5,6.122-2.747,4.74-3.54,6.111Z" transform="translate(0 1.163)" fill="#31aa52"/>
</svg>
