<svg xmlns="http://www.w3.org/2000/svg" width="20.853" height="20.631" viewBox="0 0 20.853 20.631">
  <g id="dropbox_1_" data-name="dropbox (1)" transform="translate(0 -2.73)">
    <g id="Group_118" data-name="Group 118" transform="translate(0 2.73)">
      <path id="Path_101" data-name="Path 101" d="M10.427,6.553,5.21,10.377,0,6.553,5.21,2.73Z" transform="translate(0 -2.73)" fill="#0080ff"/>
      <path id="Path_102" data-name="Path 102" d="M10.427,194.288l-5.21,3.823L0,194.288l5.21-3.823Z" transform="translate(0 -182.818)" fill="#0080ff"/>
    </g>
    <g id="Group_119" data-name="Group 119" transform="translate(7.657 2.73)">
      <path id="Path_103" data-name="Path 103" d="M266.427,194.288l-5.21,3.823-5.21-3.823,5.21-3.823Z" transform="translate(-253.231 -182.818)" fill="#0080ff"/>
      <path id="Path_104" data-name="Path 104" d="M266.427,6.553l-5.21,3.823L256,6.553l5.21-3.823Z" transform="translate(-253.231 -2.73)" fill="#0080ff"/>
      <path id="Path_105" data-name="Path 105" d="M190.769,321.535,188,325.358l2.769,3.823,5.21-3.823Z" transform="translate(-188 -308.55)" fill="#0080ff"/>
    </g>
    <path id="Path_106" data-name="Path 106" d="M128,325.358l5.21,3.823v-7.647Z" transform="translate(-122.786 -305.82)" fill="#0080ff"/>
  </g>
</svg>
